<svg width="27" height="19" viewBox="0 0 27 19" fill="none" xmlns="http://www.w3.org/2000/svg">
<path d="M9.674 1.2H10.174V0.699999H9.674V1.2ZM9.674 18V18.5H10.174V18H9.674ZM4.01 18H3.51V18.5H4.01V18ZM4.01 5.472H4.51V4.972H4.01V5.472ZM1.13 5.472H0.63V5.972H1.13V5.472ZM1.13 1.2V0.699999H0.63V1.2H1.13ZM9.174 1.2V18H10.174V1.2H9.174ZM9.674 17.5H4.01V18.5H9.674V17.5ZM4.51 18V5.472H3.51V18H4.51ZM4.01 4.972H1.13V5.972H4.01V4.972ZM1.63 5.472V1.2H0.63V5.472H1.63ZM1.13 1.7H9.674V0.699999H1.13V1.7ZM26.4012 1.2H26.9012V0.699999H26.4012V1.2ZM26.4012 4.68L26.8623 4.87355L26.9012 4.7807V4.68H26.4012ZM20.8092 18V18.5H21.1416L21.2703 18.1935L20.8092 18ZM14.6173 18L14.1578 17.8027L13.8584 18.5H14.6173V18ZM19.9452 5.592L20.4047 5.78928L20.7041 5.092H19.9452V5.592ZM16.7052 5.592V5.092H16.2052V5.592H16.7052ZM16.7052 8.04V8.54H17.2052V8.04H16.7052ZM12.0252 8.04H11.5252V8.54H12.0252V8.04ZM12.0252 1.2V0.699999H11.5252V1.2H12.0252ZM25.9012 1.2V4.68H26.9012V1.2H25.9012ZM25.9402 4.48645L20.3482 17.8065L21.2703 18.1935L26.8623 4.87355L25.9402 4.48645ZM20.8092 17.5H14.6173V18.5H20.8092V17.5ZM15.0767 18.1973L20.4047 5.78928L19.4858 5.39472L14.1578 17.8027L15.0767 18.1973ZM19.9452 5.092H16.7052V6.092H19.9452V5.092ZM16.2052 5.592V8.04H17.2052V5.592H16.2052ZM16.7052 7.54H12.0252V8.54H16.7052V7.54ZM12.5252 8.04V1.2H11.5252V8.04H12.5252ZM12.0252 1.7H26.4012V0.699999H12.0252V1.7Z" fill="#D2171C"/>
</svg>
