<svg width="69" height="19" viewBox="0 0 69 19" fill="none" xmlns="http://www.w3.org/2000/svg">
<path d="M9.61416 1.2H10.1142V0.699999H9.61416V1.2ZM9.61416 18V18.5H10.1142V18H9.61416ZM3.95016 18H3.45016V18.5H3.95016V18ZM3.95016 5.472H4.45016V4.972H3.95016V5.472ZM1.07016 5.472H0.570157V5.972H1.07016V5.472ZM1.07016 1.2V0.699999H0.570157V1.2H1.07016ZM9.11416 1.2V18H10.1142V1.2H9.11416ZM9.61416 17.5H3.95016V18.5H9.61416V17.5ZM4.45016 18V5.472H3.45016V18H4.45016ZM3.95016 4.972H1.07016V5.972H3.95016V4.972ZM1.57016 5.472V1.2H0.570157V5.472H1.57016ZM1.07016 1.7H9.61416V0.699999H1.07016V1.7ZM34.0167 1.2H34.5167V0.699999H34.0167V1.2ZM34.0167 4.68L34.4777 4.87355L34.5167 4.7807V4.68H34.0167ZM28.4247 18V18.5H28.7571L28.8857 18.1935L28.4247 18ZM22.2327 18L21.7733 17.8027L21.4739 18.5H22.2327V18ZM27.5607 5.592L28.0202 5.78928L28.3196 5.092H27.5607V5.592ZM24.3207 5.592V5.092H23.8207V5.592H24.3207ZM24.3207 8.04V8.54H24.8207V8.04H24.3207ZM19.6407 8.04H19.1407V8.54H19.6407V8.04ZM19.6407 1.2V0.699999H19.1407V1.2H19.6407ZM33.5167 1.2V4.68H34.5167V1.2H33.5167ZM33.5557 4.48645L27.9637 17.8065L28.8857 18.1935L34.4777 4.87355L33.5557 4.48645ZM28.4247 17.5H22.2327V18.5H28.4247V17.5ZM22.6922 18.1973L28.0202 5.78928L27.1013 5.39472L21.7733 17.8027L22.6922 18.1973ZM27.5607 5.092H24.3207V6.092H27.5607V5.092ZM23.8207 5.592V8.04H24.8207V5.592H23.8207ZM24.3207 7.54H19.6407V8.54H24.3207V7.54ZM20.1407 8.04V1.2H19.1407V8.04H20.1407ZM19.6407 1.7H34.0167V0.699999H19.6407V1.7ZM47.2887 7.8L47.0619 8.24558L47.2887 7.8ZM49.4007 9.696L49.8205 9.42437L49.4007 9.696ZM49.2807 15.6L48.867 15.3192L48.8636 15.3244L49.2807 15.6ZM46.8327 17.664L46.6232 17.21L46.8327 17.664ZM39.1287 17.448L38.898 17.8916L38.9004 17.8928L39.1287 17.448ZM36.3207 14.664L36.7597 14.4246L36.3207 14.664ZM36.4647 5.136L36.0279 4.89275L36.0258 4.89657L36.4647 5.136ZM39.7287 1.92L39.4971 1.47688L39.495 1.47798L39.7287 1.92ZM47.5047 1.176L47.3775 1.6596L47.3855 1.66157L47.5047 1.176ZM49.8327 2.136L50.2772 2.36498L50.4842 1.96313L50.1052 1.71678L49.8327 2.136ZM47.7927 6.096L47.5028 6.5034L47.973 6.83791L48.2372 6.32498L47.7927 6.096ZM42.3207 5.952L42.6256 6.34831L42.627 6.34721L42.3207 5.952ZM41.0967 8.064L40.6071 7.9627L40.3497 9.20663L41.3859 8.47187L41.0967 8.064ZM44.2407 14.016L43.8963 13.6535L44.2407 14.016ZM44.2407 11.52L43.8871 11.8737L43.8963 11.8825L44.2407 11.52ZM41.7447 11.52L42.0892 11.8826L42.0983 11.8736L41.7447 11.52ZM41.7447 14.016L42.0891 13.6535L41.7447 14.016ZM44.4327 7.628C45.3809 7.628 46.2548 7.8347 47.0619 8.24558L47.5156 7.35442C46.5627 6.8693 45.5326 6.628 44.4327 6.628V7.628ZM47.0619 8.24558C47.8647 8.65428 48.5016 9.22683 48.9809 9.96763L49.8205 9.42437C49.2438 8.53317 48.4728 7.84172 47.5156 7.35442L47.0619 8.24558ZM48.9809 9.96763C49.452 10.6957 49.6927 11.5357 49.6927 12.504H50.6927C50.6927 11.3603 50.4054 10.3283 49.8205 9.42437L48.9809 9.96763ZM49.6927 12.504C49.6927 13.5802 49.4143 14.5127 48.867 15.3192L49.6945 15.8808C50.3631 14.8953 50.6927 13.7638 50.6927 12.504H49.6927ZM48.8636 15.3244C48.3263 16.1375 47.5846 16.7663 46.6232 17.21L47.0422 18.118C48.1608 17.6017 49.0512 16.8545 49.6979 15.8756L48.8636 15.3244ZM46.6232 17.21C45.6554 17.6567 44.5759 17.884 43.3767 17.884V18.884C44.7055 18.884 45.93 18.6313 47.0422 18.118L46.6232 17.21ZM43.3767 17.884C41.8257 17.884 40.4906 17.5848 39.357 17.0032L38.9004 17.8928C40.1989 18.5592 41.6957 18.884 43.3767 18.884V17.884ZM39.3594 17.0044C38.251 16.428 37.386 15.5728 36.7597 14.4246L35.8818 14.9034C36.5995 16.2192 37.6064 17.22 38.898 17.8916L39.3594 17.0044ZM36.7597 14.4246C36.1373 13.2836 35.8127 11.859 35.8127 10.128H34.8127C34.8127 11.981 35.1601 13.5804 35.8818 14.9034L36.7597 14.4246ZM35.8127 10.128C35.8127 8.27522 36.1829 6.69679 36.9037 5.37543L36.0258 4.89657C35.2105 6.39121 34.8127 8.14078 34.8127 10.128H35.8127ZM36.9016 5.37924C37.6397 4.05365 38.658 3.05169 39.9624 2.36202L39.495 1.47798C38.0154 2.26031 36.8578 3.40235 36.0279 4.89276L36.9016 5.37924ZM39.9603 2.36311C41.2857 1.6703 42.8358 1.316 44.6247 1.316V0.316C42.7016 0.316 40.9877 0.697694 39.4971 1.47689L39.9603 2.36311ZM44.6247 1.316C45.5927 1.316 46.5098 1.43119 47.3775 1.65954L47.632 0.692462C46.6757 0.440808 45.6727 0.316 44.6247 0.316V1.316ZM47.3855 1.66157C48.2551 1.87516 48.9766 2.17588 49.5602 2.55522L50.1052 1.71678C49.4088 1.26412 48.5783 0.924836 47.624 0.690431L47.3855 1.66157ZM49.3882 1.90702L47.3482 5.86702L48.2372 6.32498L50.2772 2.36498L49.3882 1.90702ZM48.0826 5.6886C47.1519 5.02635 46.0299 4.708 44.7447 4.708V5.708C45.8595 5.708 46.7696 5.98165 47.5028 6.5034L48.0826 5.6886ZM44.7447 4.708C43.6813 4.708 42.759 4.97976 42.0144 5.55679L42.627 6.34721C43.1624 5.93224 43.8561 5.708 44.7447 5.708V4.708ZM42.0159 5.55569C41.2785 6.12291 40.8182 6.9424 40.6071 7.9627L41.5863 8.1653C41.7593 7.3296 42.115 6.74109 42.6256 6.34831L42.0159 5.55569ZM41.3859 8.47187C42.1626 7.92114 43.1666 7.628 44.4327 7.628V6.628C43.0108 6.628 41.7908 6.95886 40.8075 7.65613L41.3859 8.47187ZM42.9927 14.972C43.6109 14.972 44.1574 14.7849 44.5851 14.3785L43.8963 13.6535C43.6841 13.8551 43.3986 13.972 42.9927 13.972V14.972ZM44.5851 14.3785C45.0237 13.9618 45.2207 13.404 45.2207 12.768H44.2207C44.2207 13.188 44.0977 13.4622 43.8963 13.6535L44.5851 14.3785ZM45.2207 12.768C45.2207 12.132 45.0237 11.5742 44.5851 11.1575L43.8963 11.8825C44.0977 12.0738 44.2207 12.348 44.2207 12.768H45.2207ZM44.5943 11.1664C44.1679 10.7401 43.6183 10.54 42.9927 10.54V11.54C43.3911 11.54 43.6736 11.6599 43.8872 11.8736L44.5943 11.1664ZM42.9927 10.54C42.3671 10.54 41.8176 10.7401 41.3912 11.1664L42.0983 11.8736C42.3119 11.6599 42.5943 11.54 42.9927 11.54V10.54ZM41.4003 11.1575C40.9617 11.5742 40.7647 12.132 40.7647 12.768H41.7647C41.7647 12.348 41.8877 12.0738 42.0891 11.8825L41.4003 11.1575ZM40.7647 12.768C40.7647 13.404 40.9617 13.9618 41.4003 14.3785L42.0891 13.6535C41.8877 13.4622 41.7647 13.188 41.7647 12.768H40.7647ZM41.4003 14.3785C41.8281 14.7849 42.3746 14.972 42.9927 14.972V13.972C42.5869 13.972 42.3014 13.8551 42.0891 13.6535L41.4003 14.3785ZM67.9559 15.12V15.62H68.4559V15.12H67.9559ZM65.7239 15.12V14.62H65.2239V15.12H65.7239ZM65.7239 18V18.5H66.2239V18H65.7239ZM60.2279 18H59.7279V18.5H60.2279V18ZM60.2279 15.12H60.7279V14.62H60.2279V15.12ZM51.5159 15.12H51.0159V15.62H51.5159V15.12ZM51.5159 11.52L51.1045 11.2358L51.0159 11.3641V11.52H51.5159ZM58.6439 1.2V0.699999H58.3816L58.2325 0.915842L58.6439 1.2ZM64.4519 1.2L64.8683 1.47686L65.3849 0.699999H64.4519V1.2ZM58.1159 10.728L57.6996 10.4511L57.183 11.228H58.1159V10.728ZM60.3959 10.728V11.228H60.8959V10.728H60.3959ZM60.3959 8.16V7.66H59.8959V8.16H60.3959ZM65.7239 8.16H66.2239V7.66H65.7239V8.16ZM65.7239 10.728H65.2239V11.228H65.7239V10.728ZM67.9559 10.728H68.4559V10.228H67.9559V10.728ZM67.9559 14.62H65.7239V15.62H67.9559V14.62ZM65.2239 15.12V18H66.2239V15.12H65.2239ZM65.7239 17.5H60.2279V18.5H65.7239V17.5ZM60.7279 18V15.12H59.7279V18H60.7279ZM60.2279 14.62H51.5159V15.62H60.2279V14.62ZM52.0159 15.12V11.52H51.0159V15.12H52.0159ZM51.9273 11.8042L59.0553 1.48416L58.2325 0.915842L51.1045 11.2358L51.9273 11.8042ZM58.6439 1.7H64.4519V0.699999H58.6439V1.7ZM64.0356 0.923133L57.6996 10.4511L58.5322 11.0049L64.8683 1.47686L64.0356 0.923133ZM58.1159 11.228H60.3959V10.228H58.1159V11.228ZM60.8959 10.728V8.16H59.8959V10.728H60.8959ZM60.3959 8.66H65.7239V7.66H60.3959V8.66ZM65.2239 8.16V10.728H66.2239V8.16H65.2239ZM65.7239 11.228H67.9559V10.228H65.7239V11.228ZM67.4559 10.728V15.12H68.4559V10.728H67.4559Z" fill="#D2171C"/>
</svg>
