<svg width="35" height="19" viewBox="0 0 35 19" fill="none" xmlns="http://www.w3.org/2000/svg">
<path d="M12.1114 1.752L11.8808 2.19561L11.8832 2.19685L12.1114 1.752ZM14.9434 4.536L15.3824 4.29657L14.9434 4.536ZM14.7754 14.064L14.3386 13.8207L14.3365 13.8246L14.7754 14.064ZM11.5114 17.28L11.2798 16.8369L11.2777 16.838L11.5114 17.28ZM3.75944 18.024L3.8867 17.5404L3.8787 17.5384L3.75944 18.024ZM1.43144 17.064L0.98695 16.835L0.779938 17.2369L1.15894 17.4832L1.43144 17.064ZM3.47144 13.104L3.76131 12.6966L3.29119 12.3621L3.02695 12.875L3.47144 13.104ZM8.91944 13.272L9.2243 13.6683L9.22572 13.6672L8.91944 13.272ZM10.1674 11.136L10.6571 11.2373L10.9144 9.99337L9.87822 10.7281L10.1674 11.136ZM3.97544 11.4L3.7486 11.8456L3.97544 11.4ZM1.86344 9.504L1.44365 9.77563L1.86344 9.504ZM1.95944 3.6L1.54567 3.31923L1.54227 3.32437L1.95944 3.6ZM4.43144 1.536L4.22191 1.08202V1.08202L4.43144 1.536ZM9.51944 7.704L9.86393 8.06662L9.87299 8.05755L9.51944 7.704ZM9.51944 5.184L9.86381 4.8215V4.8215L9.51944 5.184ZM7.02344 5.184L7.36781 5.5465V5.5465L7.02344 5.184ZM7.02344 7.704L6.66977 8.05767L6.67906 8.0665L7.02344 7.704ZM7.88744 1.316C9.43868 1.316 10.7646 1.61522 11.8808 2.19561L12.3421 1.30839C11.0582 0.640779 9.5682 0.316 7.88744 0.316V1.316ZM11.8832 2.19685C13.0074 2.77377 13.8792 3.62897 14.5045 4.77542L15.3824 4.29657C14.6637 2.97903 13.6475 1.97823 12.3397 1.30715L11.8832 2.19685ZM14.5045 4.77542C15.1268 5.9164 15.4514 7.34103 15.4514 9.072H16.4514C16.4514 7.21896 16.104 5.6196 15.3824 4.29657L14.5045 4.77542ZM15.4514 9.072C15.4514 10.9232 15.0739 12.5002 14.3386 13.8208L15.2123 14.3072C16.045 12.8118 16.4514 11.0608 16.4514 9.072H15.4514ZM14.3365 13.8246C13.6154 15.1465 12.5992 16.1472 11.2798 16.8369L11.7431 17.7231C13.2397 16.9408 14.3995 15.7975 15.2144 14.3034L14.3365 13.8246ZM11.2777 16.838C9.96959 17.5296 8.42852 17.884 6.63944 17.884V18.884C8.56236 18.884 10.2693 18.5024 11.7451 17.722L11.2777 16.838ZM6.63944 17.884C5.67144 17.884 4.7544 17.7688 3.88668 17.5405L3.63219 18.5075C4.58848 18.7592 5.59143 18.884 6.63944 18.884V17.884ZM3.8787 17.5384C3.00906 17.3248 2.28753 17.0241 1.70393 16.6448L1.15894 17.4832C1.85534 17.9359 2.68581 18.2752 3.64017 18.5096L3.8787 17.5384ZM1.87593 17.293L3.91593 13.333L3.02695 12.875L0.98695 16.835L1.87593 17.293ZM3.18156 13.5114C4.11229 14.1736 5.23426 14.492 6.51944 14.492V13.492C5.40461 13.492 4.49458 13.2184 3.76131 12.6966L3.18156 13.5114ZM6.51944 14.492C7.57872 14.492 8.49367 14.2303 9.22429 13.6683L8.61458 12.8757C8.09721 13.2737 7.41216 13.492 6.51944 13.492V14.492ZM9.22572 13.6672C9.97554 13.0861 10.4453 12.261 10.6571 11.2373L9.67781 11.0347C9.50562 11.867 9.14333 12.4659 8.61315 12.8768L9.22572 13.6672ZM9.87822 10.7281C9.10155 11.2789 8.09753 11.572 6.83144 11.572V12.572C8.25334 12.572 9.47332 12.2411 10.4567 11.5439L9.87822 10.7281ZM6.83144 11.572C5.88327 11.572 5.00938 11.3653 4.20228 10.9544L3.7486 11.8456C4.7015 12.3307 5.73161 12.572 6.83144 12.572V11.572ZM4.20228 10.9544C3.39948 10.5457 2.76256 9.97317 2.28322 9.23237L1.44365 9.77563C2.02032 10.6668 2.7914 11.3583 3.7486 11.8456L4.20228 10.9544ZM2.28322 9.23237C1.81211 8.50429 1.57144 7.6643 1.57144 6.696H0.571438C0.571438 7.83969 0.858767 8.87171 1.44365 9.77563L2.28322 9.23237ZM1.57144 6.696C1.57144 5.61704 1.84337 4.68268 2.37661 3.87563L1.54227 3.32437C0.891504 4.30931 0.571438 5.43895 0.571438 6.696H1.57144ZM2.37318 3.88075C2.92713 3.06439 3.67854 2.43417 4.64097 1.98998L4.22191 1.08202C3.10433 1.59783 2.20774 2.3436 1.5457 3.31925L2.37318 3.88075ZM4.64097 1.98998C5.60874 1.54331 6.68823 1.316 7.88744 1.316V0.316C6.55865 0.316 5.33413 0.568685 4.22191 1.08202L4.64097 1.98998ZM8.27144 8.66C8.8896 8.66 9.43607 8.47285 9.86381 8.0665L9.17506 7.3415C8.9628 7.54315 8.67727 7.66 8.27144 7.66V8.66ZM9.87299 8.05755C10.3024 7.62815 10.4994 7.06874 10.4994 6.432H9.49944C9.49944 6.85126 9.37649 7.13984 9.16589 7.35045L9.87299 8.05755ZM10.4994 6.432C10.4994 5.796 10.3024 5.2382 9.86381 4.8215L9.17506 5.5465C9.37643 5.7378 9.49944 6.012 9.49944 6.432H10.4994ZM9.86381 4.8215C9.43607 4.41515 8.8896 4.228 8.27144 4.228V5.228C8.67727 5.228 8.9628 5.34485 9.17506 5.5465L9.86381 4.8215ZM8.27144 4.228C7.65327 4.228 7.1068 4.41515 6.67906 4.8215L7.36781 5.5465C7.58007 5.34485 7.8656 5.228 8.27144 5.228V4.228ZM6.67906 4.8215C6.24044 5.2382 6.04344 5.796 6.04344 6.432H7.04344C7.04344 6.012 7.16644 5.7378 7.36781 5.5465L6.67906 4.8215ZM6.04344 6.432C6.04344 7.06874 6.24049 7.62815 6.66988 8.05755L7.37699 7.35045C7.16639 7.13984 7.04344 6.85126 7.04344 6.432H6.04344ZM6.67906 8.0665C7.1068 8.47285 7.65327 8.66 8.27144 8.66V7.66C7.8656 7.66 7.58007 7.54315 7.36781 7.3415L6.67906 8.0665ZM34.1226 15.12V15.62H34.6226V15.12H34.1226ZM31.8906 15.12V14.62H31.3906V15.12H31.8906ZM31.8906 18V18.5H32.3906V18H31.8906ZM26.3946 18H25.8946V18.5H26.3946V18ZM26.3946 15.12H26.8946V14.62H26.3946V15.12ZM17.6826 15.12H17.1826V15.62H17.6826V15.12ZM17.6826 11.52L17.2712 11.2358L17.1826 11.3641V11.52H17.6826ZM24.8106 1.2V0.699999H24.5483L24.3992 0.915842L24.8106 1.2ZM30.6186 1.2L31.035 1.47686L31.5516 0.699999H30.6186V1.2ZM24.2826 10.728L23.8663 10.4511L23.3497 11.228H24.2826V10.728ZM26.5626 10.728V11.228H27.0626V10.728H26.5626ZM26.5626 8.16V7.66H26.0626V8.16H26.5626ZM31.8906 8.16H32.3906V7.66H31.8906V8.16ZM31.8906 10.728H31.3906V11.228H31.8906V10.728ZM34.1226 10.728H34.6226V10.228H34.1226V10.728ZM34.1226 14.62H31.8906V15.62H34.1226V14.62ZM31.3906 15.12V18H32.3906V15.12H31.3906ZM31.8906 17.5H26.3946V18.5H31.8906V17.5ZM26.8946 18V15.12H25.8946V18H26.8946ZM26.3946 14.62H17.6826V15.62H26.3946V14.62ZM18.1826 15.12V11.52H17.1826V15.12H18.1826ZM18.094 11.8042L25.222 1.48416L24.3992 0.915842L17.2712 11.2358L18.094 11.8042ZM24.8106 1.7H30.6186V0.699999H24.8106V1.7ZM30.2023 0.923133L23.8663 10.4511L24.699 11.0049L31.035 1.47686L30.2023 0.923133ZM24.2826 11.228H26.5626V10.228H24.2826V11.228ZM27.0626 10.728V8.16H26.0626V10.728H27.0626ZM26.5626 8.66H31.8906V7.66H26.5626V8.66ZM31.3906 8.16V10.728H32.3906V8.16H31.3906ZM31.8906 11.228H34.1226V10.228H31.8906V11.228ZM33.6226 10.728V15.12H34.6226V10.728H33.6226Z" fill="#D2171C"/>
</svg>
