<svg width="89" height="19" viewBox="0 0 89 19" fill="none" xmlns="http://www.w3.org/2000/svg">
<path d="M11.5616 1.752L11.3309 2.19561L11.3333 2.19685L11.5616 1.752ZM14.3936 4.536L14.8325 4.29657L14.3936 4.536ZM14.2256 14.064L13.7887 13.8207L13.7866 13.8246L14.2256 14.064ZM10.9616 17.28L10.73 16.8369L10.7279 16.838L10.9616 17.28ZM3.20959 18.024L3.33686 17.5404L3.32886 17.5384L3.20959 18.024ZM0.881593 17.064L0.437106 16.835L0.230094 17.2369L0.609099 17.4832L0.881593 17.064ZM2.92159 13.104L3.21147 12.6966L2.74134 12.3621L2.47711 12.875L2.92159 13.104ZM8.36959 13.272L8.67445 13.6683L8.67588 13.6672L8.36959 13.272ZM9.61759 11.136L10.1072 11.2373L10.3646 9.99337L9.32838 10.7281L9.61759 11.136ZM3.42559 11.4L3.19875 11.8456L3.42559 11.4ZM1.31359 9.504L0.893808 9.77563H0.893808L1.31359 9.504ZM1.40959 3.6L0.995824 3.31923L0.992425 3.32437L1.40959 3.6ZM3.88159 1.536L3.67206 1.08202L3.67206 1.08202L3.88159 1.536ZM8.96959 7.704L9.31408 8.06662L9.32315 8.05755L8.96959 7.704ZM8.96959 5.184L9.31397 4.8215L9.31397 4.8215L8.96959 5.184ZM6.47359 5.184L6.81797 5.5465L6.81797 5.5465L6.47359 5.184ZM6.47359 7.704L6.11992 8.05767L6.12922 8.0665L6.47359 7.704ZM7.33759 1.316C8.88883 1.316 10.2148 1.61522 11.3309 2.19561L11.7923 1.30839C10.5084 0.640779 9.01835 0.316 7.33759 0.316V1.316ZM11.3333 2.19685C12.4576 2.77377 13.3293 3.62897 13.9546 4.77542L14.8325 4.29657C14.1139 2.97903 13.0976 1.97823 11.7899 1.30715L11.3333 2.19685ZM13.9546 4.77542C14.577 5.9164 14.9016 7.34103 14.9016 9.072H15.9016C15.9016 7.21896 15.5542 5.6196 14.8325 4.29657L13.9546 4.77542ZM14.9016 9.072C14.9016 10.9232 14.5241 12.5002 13.7887 13.8208L14.6624 14.3072C15.4951 12.8118 15.9016 11.0608 15.9016 9.072H14.9016ZM13.7866 13.8246C13.0656 15.1465 12.0493 16.1472 10.73 16.8369L11.1932 17.7231C12.6899 16.9408 13.8496 15.7975 14.6645 14.3034L13.7866 13.8246ZM10.7279 16.838C9.41975 17.5296 7.87868 17.884 6.08959 17.884V18.884C8.01251 18.884 9.71944 18.5024 11.1953 17.722L10.7279 16.838ZM6.08959 17.884C5.1216 17.884 4.20455 17.7688 3.33684 17.5405L3.08235 18.5075C4.03863 18.7592 5.04159 18.884 6.08959 18.884V17.884ZM3.32886 17.5384C2.45922 17.3248 1.73769 17.0241 1.15409 16.6448L0.609099 17.4832C1.3055 17.9359 2.13597 18.2752 3.09033 18.5096L3.32886 17.5384ZM1.32608 17.293L3.36608 13.333L2.47711 12.875L0.437106 16.835L1.32608 17.293ZM2.63172 13.5114C3.56245 14.1736 4.68442 14.492 5.96959 14.492V13.492C4.85477 13.492 3.94474 13.2184 3.21147 12.6966L2.63172 13.5114ZM5.96959 14.492C7.02887 14.492 7.94382 14.2303 8.67445 13.6683L8.06474 12.8757C7.54736 13.2737 6.86231 13.492 5.96959 13.492V14.492ZM8.67588 13.6672C9.4257 13.0861 9.89542 12.261 10.1072 11.2373L9.12796 11.0347C8.95577 11.867 8.59349 12.4659 8.06331 12.8768L8.67588 13.6672ZM9.32838 10.7281C8.55171 11.2789 7.54769 11.572 6.28159 11.572V12.572C7.7035 12.572 8.92348 12.2411 9.90681 11.5439L9.32838 10.7281ZM6.28159 11.572C5.33343 11.572 4.45953 11.3653 3.65243 10.9544L3.19875 11.8456C4.15165 12.3307 5.18176 12.572 6.28159 12.572V11.572ZM3.65243 10.9544C2.84963 10.5457 2.21272 9.97317 1.73338 9.23237L0.893808 9.77563C1.47047 10.6668 2.24155 11.3583 3.19875 11.8456L3.65243 10.9544ZM1.73338 9.23237C1.26226 8.50429 1.02159 7.6643 1.02159 6.696H0.021593C0.021593 7.83969 0.308922 8.87171 0.893808 9.77563L1.73338 9.23237ZM1.02159 6.696C1.02159 5.61704 1.29353 4.68268 1.82676 3.87563L0.992425 3.32437C0.341659 4.30931 0.021593 5.43895 0.021593 6.696H1.02159ZM1.82333 3.88075C2.37729 3.06439 3.1287 2.43417 4.09112 1.98998L3.67206 1.08202C2.55449 1.59783 1.6579 2.3436 0.995855 3.31925L1.82333 3.88075ZM4.09112 1.98998C5.0589 1.54331 6.13838 1.316 7.33759 1.316V0.316C6.0088 0.316 4.78429 0.568685 3.67206 1.08202L4.09112 1.98998ZM7.72159 8.66C8.33976 8.66 8.88623 8.47285 9.31397 8.0665L8.62522 7.3415C8.41296 7.54315 8.12743 7.66 7.72159 7.66V8.66ZM9.32315 8.05755C9.75254 7.62815 9.94959 7.06874 9.94959 6.432H8.94959C8.94959 6.85126 8.82664 7.13984 8.61604 7.35045L9.32315 8.05755ZM9.94959 6.432C9.94959 5.796 9.7526 5.2382 9.31397 4.8215L8.62522 5.5465C8.82659 5.7378 8.94959 6.012 8.94959 6.432H9.94959ZM9.31397 4.8215C8.88623 4.41515 8.33976 4.228 7.72159 4.228V5.228C8.12743 5.228 8.41296 5.34485 8.62522 5.5465L9.31397 4.8215ZM7.72159 4.228C7.10343 4.228 6.55696 4.41515 6.12922 4.8215L6.81797 5.5465C7.03023 5.34485 7.31576 5.228 7.72159 5.228V4.228ZM6.12922 4.8215C5.69059 5.2382 5.49359 5.796 5.49359 6.432H6.49359C6.49359 6.012 6.6166 5.7378 6.81797 5.5465L6.12922 4.8215ZM5.49359 6.432C5.49359 7.06874 5.69064 7.62815 6.12004 8.05755L6.82715 7.35045C6.61654 7.13984 6.49359 6.85126 6.49359 6.432H5.49359ZM6.12922 8.0665C6.55696 8.47285 7.10343 8.66 7.72159 8.66V7.66C7.31576 7.66 7.03023 7.54315 6.81797 7.3415L6.12922 8.0665ZM31.4608 1.2H31.9608V0.699999H31.4608V1.2ZM31.4608 4.68L31.9218 4.87355L31.9608 4.7807V4.68H31.4608ZM25.8688 18V18.5H26.2011L26.3298 18.1935L25.8688 18ZM19.6768 18L19.2173 17.8027L18.9179 18.5H19.6768V18ZM25.0048 5.592L25.4642 5.78928L25.7636 5.092H25.0048V5.592ZM21.7648 5.592V5.092H21.2648V5.592H21.7648ZM21.7648 8.04V8.54H22.2648V8.04H21.7648ZM17.0848 8.04H16.5848V8.54H17.0848V8.04ZM17.0848 1.2V0.699999H16.5848V1.2H17.0848ZM30.9608 1.2V4.68H31.9608V1.2H30.9608ZM30.9998 4.48645L25.4078 17.8065L26.3298 18.1935L31.9218 4.87355L30.9998 4.48645ZM25.8688 17.5H19.6768V18.5H25.8688V17.5ZM20.1362 18.1973L25.4642 5.78928L24.5453 5.39472L19.2173 17.8027L20.1362 18.1973ZM25.0048 5.092H21.7648V6.092H25.0048V5.092ZM21.2648 5.592V8.04H22.2648V5.592H21.2648ZM21.7648 7.54H17.0848V8.54H21.7648V7.54ZM17.5848 8.04V1.2H16.5848V8.04H17.5848ZM17.0848 1.7H31.4608V0.699999H17.0848V1.7ZM44.5488 17.352L44.2854 17.7771L44.2925 17.7813L44.5488 17.352ZM41.8608 14.328L41.4104 14.5451L41.4136 14.5516L41.8608 14.328ZM41.8608 4.896L41.4125 4.67455L41.4115 4.67679L41.8608 4.896ZM44.5488 1.872L44.8079 2.29968L44.8096 2.29864L44.5488 1.872ZM52.4448 1.872L52.1814 2.29706L52.1885 2.30127L52.4448 1.872ZM55.1328 4.896L54.6824 5.11309L54.6856 5.11961L55.1328 4.896ZM55.1328 14.328L54.6845 14.1066L54.6835 14.1088L55.1328 14.328ZM52.4448 17.352L52.7039 17.7797L52.7056 17.7786L52.4448 17.352ZM48.5088 17.884C47.101 17.884 45.8715 17.5595 44.8052 16.9227L44.2925 17.7813C45.5302 18.5205 46.9407 18.884 48.5088 18.884V17.884ZM44.8122 16.927C43.7626 16.2765 42.9268 15.3419 42.3081 14.1044L41.4136 14.5516C42.1069 15.9381 43.0631 17.0195 44.2855 17.777L44.8122 16.927ZM42.3113 14.1109C41.7107 12.8648 41.4008 11.3663 41.4008 9.6H40.4008C40.4008 11.4817 40.731 13.1352 41.4104 14.5451L42.3113 14.1109ZM41.4008 9.6C41.4008 7.83348 41.7108 6.34406 42.3102 5.11521L41.4115 4.67679C40.7309 6.07194 40.4008 7.71852 40.4008 9.6H41.4008ZM42.3091 5.11744C42.928 3.86465 43.7625 2.9328 44.8079 2.29968L44.2898 1.44432C43.0632 2.1872 42.1057 3.27135 41.4126 4.67456L42.3091 5.11744ZM44.8096 2.29864C45.8752 1.64743 47.1031 1.316 48.5088 1.316V0.316C46.9385 0.316 45.5265 0.688566 44.2881 1.44536L44.8096 2.29864ZM48.5088 1.316C49.9146 1.316 51.1333 1.64745 52.1815 2.297L52.7082 1.44699C51.4844 0.688544 50.079 0.316 48.5088 0.316V1.316ZM52.1885 2.30127C53.2482 2.93415 54.0806 3.86422 54.6824 5.11307L55.5833 4.67893C54.9051 3.27178 53.9455 2.18585 52.7012 1.44273L52.1885 2.30127ZM54.6856 5.11961C55.2995 6.34734 55.6168 7.83513 55.6168 9.6H56.6168C56.6168 7.71687 56.2782 6.06866 55.5801 4.67239L54.6856 5.11961ZM55.6168 9.6C55.6168 11.3646 55.2996 12.8615 54.6846 14.1066L55.5811 14.5494C56.2781 13.1385 56.6168 11.4834 56.6168 9.6H55.6168ZM54.6835 14.1088C54.0817 15.3423 53.2481 16.2751 52.1841 16.9254L52.7056 17.7786C53.9456 17.0209 54.9039 15.9377 55.5822 14.5472L54.6835 14.1088ZM52.1858 16.9243C51.1371 17.5595 49.9168 17.884 48.5088 17.884V18.884C50.0769 18.884 51.4806 18.5205 52.7039 17.7797L52.1858 16.9243ZM48.5088 14.348C48.9274 14.348 49.3132 14.23 49.6456 13.9849C49.9723 13.744 50.2196 13.401 50.4045 12.9919C50.7688 12.1859 50.9288 11.0381 50.9288 9.6H49.9288C49.9288 10.9939 49.7689 11.9701 49.4932 12.5801C49.3581 12.879 49.2054 13.067 49.0521 13.1801C48.9045 13.289 48.7303 13.348 48.5088 13.348V14.348ZM50.9288 9.6C50.9288 8.16195 50.7688 7.01406 50.4045 6.20807C50.2196 5.79902 49.9723 5.45602 49.6456 5.2151C49.3132 4.96996 48.9274 4.852 48.5088 4.852V5.852C48.7303 5.852 48.9045 5.91104 49.0521 6.0199C49.2054 6.13298 49.3581 6.32098 49.4932 6.61993C49.7689 7.22994 49.9288 8.20605 49.9288 9.6H50.9288ZM48.5088 4.852C48.0903 4.852 47.7045 4.96996 47.3721 5.2151C47.0454 5.45602 46.7981 5.79902 46.6132 6.20807C46.2489 7.01406 46.0888 8.16195 46.0888 9.6H47.0888C47.0888 8.20605 47.2488 7.22994 47.5245 6.61993C47.6596 6.32098 47.8123 6.13298 47.9656 6.0199C48.1132 5.91104 48.2874 5.852 48.5088 5.852V4.852ZM46.0888 9.6C46.0888 11.0381 46.2489 12.1859 46.6132 12.9919C46.7981 13.401 47.0454 13.744 47.3721 13.9849C47.7045 14.23 48.0903 14.348 48.5088 14.348V13.348C48.2874 13.348 48.1132 13.289 47.9656 13.1801C47.8123 13.067 47.6596 12.879 47.5245 12.5801C47.2488 11.9701 47.0888 10.9939 47.0888 9.6H46.0888ZM71.2037 13.608H71.7037V13.108H71.2037V13.608ZM71.2037 18V18.5H71.7037V18H71.2037ZM57.7397 18H57.2397V18.5H57.7397V18ZM57.7397 14.52L57.4002 14.1529L57.2397 14.3014V14.52H57.7397ZM63.8117 8.904L64.1512 9.27108L64.154 9.26842L63.8117 8.904ZM64.8677 7.632L65.3149 7.85561V7.85561L64.8677 7.632ZM64.6997 5.64L64.3688 6.01492L64.3805 6.02517L64.3927 6.03467L64.6997 5.64ZM62.0597 5.688L62.3191 6.11539L62.0597 5.688ZM61.0277 6.84L60.804 7.28721L61.2571 7.51374L61.4777 7.05778L61.0277 6.84ZM56.7557 4.704L56.3145 4.46871L56.0729 4.92164L56.532 5.15121L56.7557 4.704ZM59.5637 1.872L59.8074 2.30856L59.8117 2.30612L59.5637 1.872ZM67.5557 1.464L67.3613 1.92468V1.92468L67.5557 1.464ZM69.9557 3.312L69.5499 3.60415V3.60415L69.9557 3.312ZM70.2197 8.688L69.7707 8.46791L69.7689 8.47163L70.2197 8.688ZM67.9397 11.424L67.6049 11.0526L67.6031 11.0542L67.9397 11.424ZM65.5397 13.608L65.2031 13.2382L64.2473 14.108H65.5397V13.608ZM70.7037 13.608V18H71.7037V13.608H70.7037ZM71.2037 17.5H57.7397V18.5H71.2037V17.5ZM58.2397 18V14.52H57.2397V18H58.2397ZM58.0792 14.8871L64.1512 9.27107L63.4722 8.53693L57.4002 14.1529L58.0792 14.8871ZM64.154 9.26842C64.6951 8.76009 65.0989 8.28757 65.3149 7.85561L64.4204 7.40839C64.2844 7.68043 63.9842 8.05591 63.4693 8.53958L64.154 9.26842ZM65.3149 7.85561C65.5197 7.44604 65.6317 7.02587 65.6317 6.6H64.6317C64.6317 6.84613 64.5677 7.11396 64.4204 7.40839L65.3149 7.85561ZM65.6317 6.6C65.6317 6.05424 65.4346 5.57816 65.0066 5.24532L64.3927 6.03467C64.5407 6.14984 64.6317 6.31376 64.6317 6.6H65.6317ZM65.0305 5.26508C64.6332 4.91454 64.095 4.78 63.4997 4.78V5.78C63.9603 5.78 64.2221 5.88546 64.3688 6.01492L65.0305 5.26508ZM63.4997 4.78C62.8939 4.78 62.3244 4.9423 61.8002 5.26061L62.3191 6.11539C62.6909 5.8897 63.0814 5.78 63.4997 5.78V4.78ZM61.8002 5.26061C61.2654 5.58527 60.8573 6.04412 60.5776 6.62222L61.4777 7.05778C61.678 6.64388 61.9579 6.33472 62.3191 6.11539L61.8002 5.26061ZM61.2513 6.39279L56.9793 4.25679L56.532 5.15121L60.804 7.28721L61.2513 6.39279ZM57.1968 4.93929C57.7899 3.82721 58.6559 2.95163 59.8074 2.30854L59.3199 1.43546C58.0075 2.16837 57.0014 3.18079 56.3145 4.46871L57.1968 4.93929ZM59.8117 2.30612C60.9527 1.65415 62.3509 1.316 64.0277 1.316V0.316C62.2164 0.316 60.6386 0.68185 59.3156 1.43788L59.8117 2.30612ZM64.0277 1.316C65.3017 1.316 66.4096 1.52317 67.3613 1.92468L67.75 1.00332C66.6537 0.540831 65.4097 0.316 64.0277 0.316V1.316ZM67.3613 1.92468C68.3117 2.32565 69.0341 2.88784 69.5499 3.60415L70.3614 3.01985C69.7252 2.13615 68.8476 1.46635 67.75 1.00332L67.3613 1.92468ZM69.5499 3.60415C70.0611 4.31422 70.3197 5.13073 70.3197 6.072H71.3197C71.3197 4.93327 71.0022 3.90978 70.3614 3.01985L69.5499 3.60415ZM70.3197 6.072C70.3197 6.92538 70.1364 7.72191 69.7707 8.46792L70.6686 8.90808C71.1029 8.02209 71.3197 7.07462 71.3197 6.072H70.3197ZM69.7689 8.47163C69.4264 9.18508 68.7224 10.0453 67.6049 11.0526L68.2744 11.7954C69.4289 10.7547 70.2449 9.79092 70.6704 8.90437L69.7689 8.47163ZM67.6031 11.0542L65.2031 13.2382L65.8762 13.9778L68.2762 11.7938L67.6031 11.0542ZM65.5397 14.108H71.2037V13.108H65.5397V14.108ZM76.4932 17.352L76.2298 17.7771L76.2368 17.7813L76.4932 17.352ZM73.8052 14.328L73.3547 14.5451L73.358 14.5516L73.8052 14.328ZM73.8052 4.896L73.3569 4.67455L73.3558 4.67679L73.8052 4.896ZM76.4932 1.872L76.7522 2.29968L76.7539 2.29864L76.4932 1.872ZM84.3892 1.872L84.1258 2.29706L84.1328 2.30127L84.3892 1.872ZM87.0772 4.896L86.6267 5.11309L86.63 5.11961L87.0772 4.896ZM87.0772 14.328L86.6289 14.1066L86.6278 14.1088L87.0772 14.328ZM84.3892 17.352L84.6482 17.7797L84.6499 17.7786L84.3892 17.352ZM80.4532 17.884C79.0454 17.884 77.8158 17.5595 76.7496 16.9227L76.2368 17.7813C77.4746 18.5205 78.885 18.884 80.4532 18.884V17.884ZM76.7566 16.927C75.7069 16.2765 74.8712 15.3419 74.2524 14.1044L73.358 14.5516C74.0513 15.9381 75.0075 17.0195 76.2298 17.777L76.7566 16.927ZM74.2556 14.1109C73.6551 12.8648 73.3452 11.3663 73.3452 9.6H72.3452C72.3452 11.4817 72.6754 13.1352 73.3548 14.5451L74.2556 14.1109ZM73.3452 9.6C73.3452 7.83348 73.6552 6.34406 74.2546 5.11521L73.3558 4.67679C72.6753 6.07194 72.3452 7.71852 72.3452 9.6H73.3452ZM74.2535 5.11744C74.8724 3.86465 75.7069 2.9328 76.7522 2.29968L76.2342 1.44432C75.0076 2.1872 74.0501 3.27135 73.3569 4.67456L74.2535 5.11744ZM76.7539 2.29864C77.8196 1.64743 79.0475 1.316 80.4532 1.316V0.316C78.8829 0.316 77.4709 0.688566 76.2325 1.44536L76.7539 2.29864ZM80.4532 1.316C81.859 1.316 83.0777 1.64745 84.1258 2.297L84.6526 1.44699C83.4287 0.688544 82.0234 0.316 80.4532 0.316V1.316ZM84.1328 2.30127C85.1925 2.93415 86.0249 3.86422 86.6268 5.11307L87.5276 4.67893C86.8495 3.27178 85.8899 2.18585 84.6456 1.44273L84.1328 2.30127ZM86.63 5.11961C87.2439 6.34734 87.5612 7.83513 87.5612 9.6H88.5612C88.5612 7.71687 88.2226 6.06866 87.5244 4.67239L86.63 5.11961ZM87.5612 9.6C87.5612 11.3646 87.2439 12.8615 86.6289 14.1066L87.5255 14.5494C88.2225 13.1385 88.5612 11.4834 88.5612 9.6H87.5612ZM86.6278 14.1088C86.0261 15.3423 85.1925 16.2751 84.1285 16.9254L84.6499 17.7786C85.89 17.0209 86.8483 15.9377 87.5266 14.5472L86.6278 14.1088ZM84.1302 16.9243C83.0814 17.5595 81.8612 17.884 80.4532 17.884V18.884C82.0213 18.884 83.425 18.5205 84.6482 17.7797L84.1302 16.9243ZM80.4532 14.348C80.8717 14.348 81.2576 14.23 81.59 13.9849C81.9167 13.744 82.164 13.401 82.3488 12.9919C82.7131 12.1859 82.8732 11.0381 82.8732 9.6H81.8732C81.8732 10.9939 81.7133 11.9701 81.4376 12.5801C81.3025 12.879 81.1498 13.067 80.9964 13.1801C80.8488 13.289 80.6747 13.348 80.4532 13.348V14.348ZM82.8732 9.6C82.8732 8.16195 82.7131 7.01406 82.3488 6.20807C82.164 5.79902 81.9167 5.45602 81.59 5.2151C81.2576 4.96996 80.8717 4.852 80.4532 4.852V5.852C80.6747 5.852 80.8488 5.91104 80.9964 6.0199C81.1498 6.13298 81.3025 6.32098 81.4376 6.61993C81.7133 7.22994 81.8732 8.20605 81.8732 9.6H82.8732ZM80.4532 4.852C80.0347 4.852 79.6488 4.96996 79.3164 5.2151C78.9898 5.45602 78.7425 5.79902 78.5576 6.20807C78.1933 7.01406 78.0332 8.16195 78.0332 9.6H79.0332C79.0332 8.20605 79.1931 7.22994 79.4688 6.61993C79.604 6.32098 79.7567 6.13298 79.91 6.0199C80.0576 5.91104 80.2318 5.852 80.4532 5.852V4.852ZM78.0332 9.6C78.0332 11.0381 78.1933 12.1859 78.5576 12.9919C78.7425 13.401 78.9898 13.744 79.3164 13.9849C79.6488 14.23 80.0347 14.348 80.4532 14.348V13.348C80.2318 13.348 80.0576 13.289 79.91 13.1801C79.7567 13.067 79.604 12.879 79.4688 12.5801C79.1931 11.9701 79.0332 10.9939 79.0332 9.6H78.0332Z" fill="#D2171C"/>
</svg>
