<svg width="605" height="71" viewBox="0 0 605 71" fill="none" xmlns="http://www.w3.org/2000/svg">
<path opacity="0.7" d="M54.7986 34.06L53.0097 30.4823L44.7655 34.6044L53.4073 37.8103L54.7986 34.06ZM63.4386 40.09L66.6037 37.6442L63.4386 40.09ZM59.6586 62.5L61.857 65.8417L61.8723 65.8316L61.8874 65.8215L59.6586 62.5ZM4.39855 67H0.398555V71H4.39855V67ZM4.39855 4V-3.8147e-06H0.398555V4H4.39855ZM57.0486 8.5L54.7454 11.7704L54.7562 11.778L54.767 11.7855L57.0486 8.5ZM61.2786 28.39L57.911 26.2313L57.8912 26.2623L57.8719 26.2936L61.2786 28.39ZM25.2786 18.85V14.85H21.2786V18.85H25.2786ZM25.2786 28.21H21.2786V32.21H25.2786V28.21ZM25.2786 42.25V38.25H21.2786V42.25H25.2786ZM25.2786 52.15H21.2786V56.15H25.2786V52.15ZM53.4073 37.8103C56.5599 38.9798 58.7713 40.5919 60.2734 42.5358L66.6037 37.6442C64.0258 34.3081 60.4772 31.9002 56.1898 30.3097L53.4073 37.8103ZM60.2734 42.5358C61.71 44.3949 62.4986 46.6878 62.4986 49.63H70.4986C70.4986 45.1322 69.2471 41.0651 66.6037 37.6442L60.2734 42.5358ZM62.4986 49.63C62.4986 53.8252 60.8758 56.866 57.4297 59.1785L61.8874 65.8215C67.5613 62.014 70.4986 56.4748 70.4986 49.63H62.4986ZM57.4601 59.1583C53.8311 61.5458 48.1348 63 39.8586 63V71C48.8623 71 56.366 69.4542 61.857 65.8417L57.4601 59.1583ZM39.8586 63H4.39855V71H39.8586V63ZM8.39855 67V4H0.398555V67H8.39855ZM4.39855 8H38.0586V-3.8147e-06H4.39855V8ZM38.0586 8C46.0967 8 51.4586 9.45576 54.7454 11.7704L59.3517 5.22957C54.1185 1.54424 46.8204 -3.8147e-06 38.0586 -3.8147e-06V8ZM54.767 11.7855C58.0821 14.0876 59.5286 16.8853 59.5286 20.47H67.5286C67.5286 14.0947 64.655 8.91236 59.3301 5.21452L54.767 11.7855ZM59.5286 20.47C59.5286 22.6911 58.9738 24.5735 57.911 26.2313L64.6461 30.5487C66.5834 27.5265 67.5286 24.1289 67.5286 20.47H59.5286ZM57.8719 26.2936C56.8856 27.8964 55.3393 29.3175 53.0097 30.4823L56.5874 37.6377C60.0178 35.9225 62.7915 33.5636 64.6852 30.4864L57.8719 26.2936ZM21.2786 18.85V28.21H29.2786V18.85H21.2786ZM25.2786 32.21H35.1786V24.21H25.2786V32.21ZM35.1786 32.21C37.8133 32.21 40.4926 31.788 42.6147 30.3549C45.0165 28.7329 46.1086 26.2333 46.1086 23.53H38.1086C38.1086 23.8149 38.0574 23.8702 38.0886 23.8071C38.1284 23.7263 38.1796 23.6966 38.1374 23.7251C37.9495 23.852 37.1638 24.21 35.1786 24.21V32.21ZM46.1086 23.53C46.1086 20.8267 45.0165 18.3271 42.6147 16.7051C40.4926 15.272 37.8133 14.85 35.1786 14.85V22.85C37.1638 22.85 37.9495 23.208 38.1374 23.3349C38.1796 23.3634 38.1284 23.3337 38.0886 23.2529C38.0574 23.1898 38.1086 23.2451 38.1086 23.53H46.1086ZM35.1786 14.85H25.2786V22.85H35.1786V14.85ZM38.0586 56.15C40.7466 56.15 43.4778 55.6982 45.6286 54.1815C48.0353 52.4845 49.0786 49.922 49.0786 47.2H41.0786C41.0786 47.5534 41.0168 47.6703 41.0235 47.6561C41.0399 47.6214 41.066 47.6099 41.0185 47.6435C40.8294 47.7768 40.0505 48.15 38.0586 48.15V56.15ZM49.0786 47.2C49.0786 44.478 48.0353 41.9155 45.6286 40.2185C43.4777 38.7018 40.7466 38.25 38.0586 38.25V46.25C40.0505 46.25 40.8294 46.6232 41.0185 46.7565C41.066 46.7901 41.0399 46.7786 41.0235 46.7439C41.0168 46.7297 41.0786 46.8466 41.0786 47.2H49.0786ZM38.0586 38.25H25.2786V46.25H38.0586V38.25ZM21.2786 42.25V52.15H29.2786V42.25H21.2786ZM25.2786 56.15H38.0586V48.15H25.2786V56.15ZM135.388 50.98H139.388V46.98H135.388V50.98ZM135.388 67V71H139.388V67H135.388ZM83.0079 67H79.0079V71H83.0079V67ZM83.0079 4V-3.8147e-06H79.0079V4H83.0079ZM134.218 4H138.218V-3.8147e-06H134.218V4ZM134.218 20.02V24.02H138.218V20.02H134.218ZM103.888 20.02V16.02H99.8879V20.02H103.888ZM103.888 27.4H99.8879V31.4H103.888V27.4ZM130.528 27.4H134.528V23.4H130.528V27.4ZM130.528 42.7V46.7H134.528V42.7H130.528ZM103.888 42.7V38.7H99.8879V42.7H103.888ZM103.888 50.98H99.8879V54.98H103.888V50.98ZM131.388 50.98V67H139.388V50.98H131.388ZM135.388 63H83.0079V71H135.388V63ZM87.0079 67V4H79.0079V67H87.0079ZM83.0079 8H134.218V-3.8147e-06H83.0079V8ZM130.218 4V20.02H138.218V4H130.218ZM134.218 16.02H103.888V24.02H134.218V16.02ZM99.8879 20.02V27.4H107.888V20.02H99.8879ZM103.888 31.4H130.528V23.4H103.888V31.4ZM126.528 27.4V42.7H134.528V27.4H126.528ZM130.528 38.7H103.888V46.7H130.528V38.7ZM99.8879 42.7V50.98H107.888V42.7H99.8879ZM103.888 54.98H135.388V46.98H103.888V54.98ZM231.477 56.02L235.21 54.582L234.223 52.02H231.477V56.02ZM207.537 56.02V52.02H204.791L203.804 54.582L207.537 56.02ZM203.307 67V71H206.053L207.04 68.438L203.307 67ZM181.707 67L178.042 65.3978L175.593 71H181.707V67ZM209.247 4V-3.8147e-06H206.63L205.582 2.39782L209.247 4ZM230.127 4L233.792 2.39782L232.744 -3.8147e-06H230.127V4ZM257.667 67V71H263.781L261.332 65.3978L257.667 67ZM235.707 67L231.974 68.438L232.961 71H235.707V67ZM225.627 40.72V44.72H231.461L229.358 39.2784L225.627 40.72ZM219.507 24.88L223.238 23.4384L219.507 13.7812L215.776 23.4384L219.507 24.88ZM213.387 40.72L209.656 39.2784L207.553 44.72H213.387V40.72ZM231.477 52.02H207.537V60.02H231.477V52.02ZM203.804 54.582L199.574 65.562L207.04 68.438L211.27 57.458L203.804 54.582ZM203.307 63H181.707V71H203.307V63ZM185.372 68.6022L212.912 5.60217L205.582 2.39782L178.042 65.3978L185.372 68.6022ZM209.247 8H230.127V-3.8147e-06H209.247V8ZM226.462 5.60217L254.002 68.6022L261.332 65.3978L233.792 2.39782L226.462 5.60217ZM257.667 63H235.707V71H257.667V63ZM239.44 65.562L235.21 54.582L227.744 57.458L231.974 68.438L239.44 65.562ZM229.358 39.2784L223.238 23.4384L215.776 26.3216L221.896 42.1616L229.358 39.2784ZM215.776 23.4384L209.656 39.2784L217.118 42.1616L223.238 26.3216L215.776 23.4384ZM213.387 44.72H225.627V36.72H213.387V44.72ZM319.719 20.47H323.719V16.47H319.719V20.47ZM301.269 20.47H297.269V24.47H301.269V20.47ZM301.269 4V-3.8147e-06H297.269V4H301.269ZM359.409 4H363.409V-3.8147e-06H359.409V4ZM359.409 20.47V24.47H363.409V20.47H359.409ZM340.959 20.47V16.47H336.959V20.47H340.959ZM340.959 67V71H344.959V67H340.959ZM319.719 67H315.719V71H319.719V67ZM319.719 16.47H301.269V24.47H319.719V16.47ZM305.269 20.47V4H297.269V20.47H305.269ZM301.269 8H359.409V-3.8147e-06H301.269V8ZM355.409 4V20.47H363.409V4H355.409ZM359.409 16.47H340.959V24.47H359.409V16.47ZM336.959 20.47V67H344.959V20.47H336.959ZM340.959 63H319.719V71H340.959V63ZM323.719 67V20.47H315.719V67H323.719ZM426.306 50.98H430.306V46.98H426.306V50.98ZM426.306 67V71H430.306V67H426.306ZM373.926 67H369.926V71H373.926V67ZM373.926 4V-3.8147e-06H369.926V4H373.926ZM425.136 4H429.136V-3.8147e-06H425.136V4ZM425.136 20.02V24.02H429.136V20.02H425.136ZM394.806 20.02V16.02H390.806V20.02H394.806ZM394.806 27.4H390.806V31.4H394.806V27.4ZM421.446 27.4H425.446V23.4H421.446V27.4ZM421.446 42.7V46.7H425.446V42.7H421.446ZM394.806 42.7V38.7H390.806V42.7H394.806ZM394.806 50.98H390.806V54.98H394.806V50.98ZM422.306 50.98V67H430.306V50.98H422.306ZM426.306 63H373.926V71H426.306V63ZM377.926 67V4H369.926V67H377.926ZM373.926 8H425.136V-3.8147e-06H373.926V8ZM421.136 4V20.02H429.136V4H421.136ZM425.136 16.02H394.806V24.02H425.136V16.02ZM390.806 20.02V27.4H398.806V20.02H390.806ZM394.806 31.4H421.446V23.4H394.806V31.4ZM417.446 27.4V42.7H425.446V27.4H417.446ZM421.446 38.7H394.806V46.7H421.446V38.7ZM390.806 42.7V50.98H398.806V42.7H390.806ZM394.806 54.98H426.306V46.98H394.806V54.98ZM486.413 56.02L490.145 54.582L489.158 52.02H486.413V56.02ZM462.473 56.02V52.02H459.727L458.74 54.582L462.473 56.02ZM458.243 67V71H460.988L461.975 68.438L458.243 67ZM436.643 67L432.977 65.3978L430.528 71H436.643V67ZM464.183 4V-3.8147e-06H461.566L460.517 2.39782L464.183 4ZM485.063 4L488.728 2.39782L487.679 -3.8147e-06H485.063V4ZM512.603 67V71H518.717L516.268 65.3978L512.603 67ZM490.643 67L486.91 68.438L487.897 71H490.643V67ZM480.563 40.72V44.72H486.396L484.294 39.2784L480.563 40.72ZM474.443 24.88L478.174 23.4384L474.443 13.7812L470.711 23.4384L474.443 24.88ZM468.323 40.72L464.591 39.2784L462.489 44.72H468.323V40.72ZM486.413 52.02H462.473V60.02H486.413V52.02ZM458.74 54.582L454.51 65.562L461.975 68.438L466.205 57.458L458.74 54.582ZM458.243 63H436.643V71H458.243V63ZM440.308 68.6022L467.848 5.60217L460.517 2.39782L432.977 65.3978L440.308 68.6022ZM464.183 8H485.063V-3.8147e-06H464.183V8ZM481.397 5.60217L508.937 68.6022L516.268 65.3978L488.728 2.39782L481.397 5.60217ZM512.603 63H490.643V71H512.603V63ZM494.375 65.562L490.145 54.582L482.68 57.458L486.91 68.438L494.375 65.562ZM484.294 39.2784L478.174 23.4384L470.711 26.3216L476.831 42.1616L484.294 39.2784ZM470.711 23.4384L464.591 39.2784L472.054 42.1616L478.174 26.3216L470.711 23.4384ZM468.323 44.72H480.563V36.72H468.323V44.72ZM581.242 67L577.242 67.0251L577.267 71H581.242V67ZM581.062 38.29L585.062 38.2649L584.972 23.8704L577.623 36.2478L581.062 38.29ZM567.382 61.33V65.33H569.659L570.822 63.3722L567.382 61.33ZM558.022 61.33L554.623 63.4388L555.797 65.33H558.022V61.33ZM544.342 39.28L547.741 37.1712L540.342 25.2452V39.28H544.342ZM544.342 67V71H548.342V67H544.342ZM524.992 67H520.992V71H524.992V67ZM524.992 4V-3.8147e-06H520.992V4H524.992ZM542.452 4L545.865 1.91383L544.695 -3.8147e-06H542.452V4ZM562.972 37.57L559.559 39.6562L563.018 45.3143L566.41 39.6158L562.972 37.57ZM582.952 4V-3.8147e-06H580.678L579.515 1.95422L582.952 4ZM600.412 4L604.412 3.98857L604.401 -3.8147e-06H600.412V4ZM600.592 67V71H604.604L604.592 66.9886L600.592 67ZM585.242 66.9749L585.062 38.2649L577.062 38.3151L577.242 67.0251L585.242 66.9749ZM577.623 36.2478L563.943 59.2878L570.822 63.3722L584.502 40.3322L577.623 36.2478ZM567.382 57.33H558.022V65.33H567.382V57.33ZM561.421 59.2212L547.741 37.1712L540.943 41.3888L554.623 63.4388L561.421 59.2212ZM540.342 39.28V67H548.342V39.28H540.342ZM544.342 63H524.992V71H544.342V63ZM528.992 67V4H520.992V67H528.992ZM524.992 8H542.452V-3.8147e-06H524.992V8ZM539.039 6.08617L559.559 39.6562L566.385 35.4838L545.865 1.91383L539.039 6.08617ZM566.41 39.6158L586.39 6.04577L579.515 1.95422L559.535 35.5242L566.41 39.6158ZM582.952 8H600.412V-3.8147e-06H582.952V8ZM596.412 4.01143L596.592 67.0114L604.592 66.9886L604.412 3.98857L596.412 4.01143ZM600.592 63H581.242V71H600.592V63Z" fill="#EDF4FE"/>
</svg>
