<svg width="151" height="87" viewBox="0 0 151 87" fill="none" xmlns="http://www.w3.org/2000/svg">
<g clip-path="url(#clip0)">
<path d="M144.077 69.0433C146.77 66.2756 147.077 59.2793 147.154 59.2025C147.154 51.9756 143.693 48.2084 139.462 46.3632C135.231 44.5181 130.385 44.5181 127.385 44.5181C127.308 44.5181 127.308 44.5181 127.154 44.5181C121.231 44.5181 113.308 46.1326 113.231 46.1326L112.923 46.2095L113.923 81.7288L116.077 84.3428L136.846 84.7272H136.923C137 84.7272 138.923 84.3428 141 83.1127C143 81.8826 145.154 79.653 145.154 75.8858C145.154 74.0406 144.693 71.9648 143.462 69.4277L144.077 69.0433Z" fill="#D2171C"/>
<path d="M144.385 75.8857C144.385 79.2685 142.539 81.1906 140.692 82.3438C139.769 82.882 138.769 83.2664 138.077 83.5739C137.462 83.8046 137.077 83.8046 136.923 83.8814L116.615 83.497L114.846 81.3443L113.846 46.7476C115.385 46.4401 122.154 45.21 127.231 45.21C127.308 45.21 127.308 45.21 127.462 45.21C130.462 45.21 135.231 45.2868 139.231 46.9782C143.231 48.7465 146.385 52.1293 146.385 59.0487C146.385 59.0487 146.308 60.7401 145.846 62.8159C145.462 64.8148 144.692 67.1981 143.539 68.3513L142.539 69.197L142.692 69.4277C143.923 72.1185 144.385 74.1944 144.385 75.8857Z" fill="#D2171C"/>
<path d="M92.154 59.1256L79.231 49.5923L80.154 81.1906L82.3079 83.9584H82.5387L91.154 83.8815L91.3079 83.1127L93.231 86.3417L95.6925 82.5745L96.3079 83.8046L104.769 84.189L106.923 50.7455L104.616 49.9767L92.154 59.1256Z" fill="#D2171C"/>
<path d="M105.923 51.2064L103.923 83.266L96.7692 82.8816L95.7692 80.8827L93.3077 84.8037L91 80.8827L90.5385 83.1123L82.8462 83.1892L81 80.9596L80 51.2064L92.1539 60.1247L104.692 50.7451L105.923 51.2064Z" fill="#D2171C"/>
<path d="M25.769 52.4369L27.4614 83.7277L48.4614 83.8815L48.5383 74.1175L42.1537 73.81V70.1197L48.6152 70.1965L51.1537 51.9756H25.769V52.4369Z" fill="#D2171C"/>
<path d="M50.2306 52.8979L47.9229 69.4275L41.3845 69.3506V74.5786L47.7691 74.8092L47.6921 83.1125L28.2306 83.0356L26.6152 52.8979H50.2306Z" fill="#D2171C"/>
<path d="M50.6924 80.7289L53.6155 84.0348H53.8462L79.4616 83.8042L64.6155 47.3623L50.6924 80.7289Z" fill="#D2171C"/>
<path d="M53.9998 83.1895L51.6152 80.5755L64.6152 49.4385L78.3076 82.9589L53.9998 83.1895Z" fill="#D2171C"/>
<path d="M83.0001 80.422L87.8462 80.8064L88.3078 74.5021L92.1539 80.5757L96.8462 74.4252L97.1539 80.5757L101.615 80.8064L103.462 54.2822L92.3078 62.8161L81.6924 54.1284L83.0001 80.422Z" fill="white"/>
<path d="M0 52.2833L0.615385 69.9661L5.30769 69.3511L6.30769 83.036L17.7692 83.1129L19.2308 69.0435L22 69.3511L23.8462 51.9758L0 51.8989V52.2833Z" fill="#D2171C"/>
<path d="M22.8462 52.7446L21.2308 68.4285L18.4616 68.1978L17 82.2672L7.00004 82.1903L6.00004 68.3516L1.30773 69.0435L0.846191 52.7446H22.8462Z" fill="#D2171C"/>
<path d="M143 57.8954C143.077 43.1342 115.385 47.9777 115.385 47.9777L116.692 80.268L126.308 80.7293L128 59.5099L129.154 80.5755C129.154 80.5755 141.154 82.1131 141.154 74.8094C141.154 74.8094 141.769 71.8879 139.462 68.1976L138.923 67.5825C143.692 63.7384 143 57.8954 143 57.8954Z" fill="white"/>
<path d="M63.0767 80.6523L64.5382 75.04L65.9998 81.1905L74.9998 81.4211L64.6921 54.0513L53.9229 80.2679L63.0767 80.6523Z" fill="white"/>
<path d="M45.3077 80.6524L45.3846 77.1158L35.1539 76.8852L35.2308 72.6567L38.8462 72.3492V70.7346L35.3846 70.6578V66.2755L46.077 66.583L47.8462 54.282L27.8462 54.2051L29 80.4217L45.3077 80.6524Z" fill="white"/>
<path d="M7.76919 65.968L7.99996 80.0373L15 79.8836L15.8461 65.8911L19.6153 65.7373L20.4615 54.3588L2.15381 54.2051L2.30765 65.968H7.76919Z" fill="white"/>
<path d="M56.9998 58.1258L50.769 57.6646L59.6152 60.0479L60.1537 58.664L56.9998 58.1258Z" fill="#363636"/>
<path d="M73.3074 60.8171L70.2305 60.3558L71.4612 63.3542L73.7689 63.9692L79.2305 59.7408L79.1535 58.2031L73.3074 60.8171Z" fill="#363636"/>
<path d="M95.2304 37.6754C95.7689 37.9829 96.692 37.291 97.1535 36.2915C97.692 35.2152 97.615 34.1388 97.0766 33.9082C96.5381 33.6007 95.615 34.2926 95.1535 35.2921C94.615 36.2915 94.615 37.3679 95.2304 37.6754Z" fill="#363636"/>
<path d="M68.6921 56.0503C69.2305 55.589 70.4613 54.3589 71.3844 53.4363C71.4613 53.59 71.6152 53.6669 71.769 53.6669C72.6921 53.7438 76.3075 53.7438 76.6152 54.0513C76.9228 54.3589 75.4613 58.1261 75.3075 59.1255C75.1536 60.2019 77.5382 58.8949 78.3075 58.5105C79.1536 58.1261 77.9228 58.0492 76.9228 58.4336C75.8459 58.818 77.3844 55.4352 77.769 54.2051C78.1536 52.975 78.5382 52.975 77.0767 52.5906C76.3844 52.4368 75.3075 52.2062 74.3844 51.9755C74.6152 51.8218 74.8459 51.5911 75.0767 51.3605C76.1536 50.4379 76.769 49.5922 77.0767 48.9003C78.4613 48.5927 80.8459 47.747 81.4613 47.5164C82.1536 47.2857 84.1536 46.2863 85.1536 45.5944C85.2305 45.7481 85.9228 45.3637 86.3075 45.1331C86.3844 45.0562 86.4613 44.9793 86.4613 44.9024C86.6921 44.6718 86.9228 44.518 86.9228 44.518C86.9998 44.4411 86.9998 44.3642 86.9998 44.2874C87.4613 43.903 89.5382 42.2116 90.0767 41.5965C90.3844 41.2121 91.6152 40.5202 92.6921 39.982C92.1536 41.0583 91.6152 41.2121 90.9998 42.2884C90.9229 42.3653 90.9228 42.4422 90.9228 42.5191C90.8459 42.5191 90.8459 42.596 90.769 42.596C90.1536 43.7492 89.3844 44.4411 89.6921 45.5944C89.9228 46.5938 89.2305 49.054 89.1536 49.4384C89.0767 49.4384 86.6152 52.6675 86.2305 53.7438C86.1536 53.9744 87.3844 54.2051 87.769 54.2051C89.1536 54.2051 89.3844 53.8207 88.769 53.7438C88.2305 53.59 87.1536 53.7438 87.3075 53.2825C87.4613 52.8212 90.3844 49.8997 90.6152 49.2847C90.8459 48.6696 91.3844 47.0551 91.769 45.825C91.8459 45.7481 91.9228 45.7481 91.9998 45.6712C93.2305 46.2863 95.1536 47.2858 95.3075 47.5933C95.4613 47.9777 92.5382 50.7454 91.9998 51.668C91.4613 52.5906 94.0767 52.4368 94.9998 52.3599C95.0767 52.3599 95.0767 52.3599 95.1536 52.3599L92.5382 52.975L90.4613 54.2051L85.1536 54.282L87.3075 55.8196L96.4613 55.589L99.6921 45.6712L113.923 44.1336L120.077 36.4454L138.077 32.9089L141.077 36.9836L151.231 25.067L140.846 33.4471L138.692 30.1411L119.231 35.0616L115.769 38.8288C116.307 38.2137 115.231 38.5981 114.384 39.2901C113.538 39.982 113.769 36.2917 113.769 34.9847C113.692 33.6777 114.077 33.5239 112.538 33.7546C111.846 33.8315 110.769 33.9852 109.923 34.0621C110.077 33.8315 110.154 33.6777 110.307 33.4471C111.077 32.2169 111.461 31.2944 111.538 30.5255C112.769 29.8336 114.846 28.296 115.384 27.9116C116 27.4503 117.615 25.9895 118.384 24.9901C118.538 25.067 119 24.6057 119.307 24.2213C119.692 24.2981 120.692 23.6831 120.692 23.6831C120.769 23.6062 120.846 23.6062 120.846 23.5293C121.384 23.2218 123.692 21.9148 124.307 21.4535C124.615 21.2229 125.615 20.8385 126.538 20.5309C125.769 21.9148 125.384 21.9148 124.769 23.068C124.307 23.8368 124.154 24.5288 124.077 24.9901C123.846 25.682 123.154 27.4503 122.231 29.3723C121.307 31.2944 120 33.5239 119.769 33.9083C119.154 34.6772 120.615 34.2159 121.231 34.3696C121.846 34.5234 124.461 34.2927 121.154 33.4471C121 33.3702 122.538 31.2944 123.384 29.6799C124.154 28.296 125.077 27.2196 125.615 26.4508C127 26.6815 129.461 27.1428 129.692 27.3734C129.923 27.6809 127.923 31.2175 127.692 32.2169C127.384 33.2164 129.923 32.2938 130.769 32.0632C131.615 31.7557 130.461 31.6019 129.384 31.7557C128.307 31.9863 130.307 28.8342 130.846 27.6809C131.384 26.5277 131.769 26.5277 130.384 25.9895C129.538 25.682 128.231 25.1438 127.307 24.7594C127.538 24.375 127.846 23.9137 128.231 23.3756C129.077 22.0686 129.461 20.9922 129.538 20.2234C131 20.2234 133.154 19.9928 133.769 19.9159C134.538 19.839 136.692 19.3777 137.846 18.9164C137.923 19.0702 138.307 18.9933 138.692 18.8395C138.692 20.0696 138.769 20.9153 138.769 20.9922C138.846 21.4535 139.384 21.2998 139.154 20.3003C139.154 20.3003 139.154 19.6852 139.077 18.6858C139.461 18.532 139.384 18.0707 139.307 17.5326C139.307 17.3788 139.154 17.3788 139 17.3788C138.846 13.9191 138.692 8.30675 138.923 6.15407C139 5.1546 139 4.69331 138.923 4.53955C138.538 6.30783 138.923 8.15299 138.769 9.84439C138.769 10.1519 138.692 10.3826 138.692 10.6901C138.692 10.9976 138.615 11.2283 138.615 11.2283H138.538C138.615 13.3041 138.615 15.6874 138.692 17.5326C138.307 17.6863 137.846 17.9938 137.846 17.9938C137.769 18.0707 137.692 18.0707 137.692 18.1476C137.461 18.2245 137.154 18.2245 136.846 18.3014C136.077 18.4551 135.077 18.9164 133.538 18.9933C131.692 19.0702 129.846 18.3014 129.846 18.3014C129.769 18.3014 129.769 18.3014 129.692 18.3014C130 18.0707 130.307 17.6094 130.384 17.0713C130.615 16.1487 130.384 15.2261 129.769 15.0723C129.154 14.9186 128.538 15.5336 128.231 16.5331C128 17.3019 128.154 17.9938 128.461 18.3014C128.231 18.3014 128 18.3782 127.692 18.4551C127.077 18.6858 125.384 19.6084 123.923 20.4541C122.538 21.2998 121.307 22.0686 120.461 22.5299C120.231 22.453 119.692 22.6067 119.307 22.7605C119.154 22.8374 119 22.9911 119 23.1449C118.923 23.068 118.923 22.9911 118.846 22.9143C118.538 22.5299 117.769 24.0675 117.769 24.0675C117.692 24.1444 117.692 24.2213 117.769 24.2981C117.538 24.4519 117.384 24.6825 117.154 24.9132C116.615 25.4514 116 26.3739 114.692 27.2196C113.461 27.9885 112 28.3729 111.461 28.5266C111.846 28.296 112.154 27.8347 112.307 27.2196C112.538 26.2971 112.307 25.3745 111.692 25.2207C111.077 25.0669 110.461 25.682 110.154 26.6815C109.923 27.4503 110.077 28.1422 110.461 28.4497C110.231 28.4497 110 28.5266 109.692 28.6035C109.077 28.8342 107.384 29.7567 105.923 30.6024C104.538 31.4481 103.307 32.2169 102.461 32.6782C102.231 32.6014 101.692 32.7551 101.384 32.9089C101.154 32.9858 101.077 33.2164 101.077 33.4471C101 33.6008 100.923 33.8315 100.846 33.9083C100.769 34.3696 99.8459 38.2137 99.5382 38.2137C99.2305 38.2137 95.8459 37.9062 95.5382 37.9831C95.3844 37.6755 94.8459 37.6755 94.3844 37.9831C94.0767 37.9062 93.6152 37.9062 92.9229 38.2906C92.3844 38.5981 90.8459 39.8282 89.6152 40.9046C88.3844 41.9809 87.3075 42.9804 86.6152 43.5954C86.3844 43.5954 85.9228 43.8261 85.5382 44.0567C85.3844 44.1336 85.3844 44.2105 85.3075 44.3642C85.0767 44.5949 84.8459 44.8255 84.8459 44.8255C84.769 44.9024 84.769 44.9793 84.769 45.0562C84.5382 45.1331 84.3075 45.2868 83.9998 45.4406C83.3075 45.825 82.4613 46.5169 80.9998 46.9013C79.6152 47.2857 78.1536 47.2089 77.5382 47.2089C77.9998 47.132 78.3844 46.7476 78.769 46.2094C79.3075 45.3637 79.3075 44.4411 78.769 44.1336C78.2305 43.8261 77.3844 44.2105 76.9228 45.0562C76.4613 45.7481 76.4613 46.5169 76.6921 46.9782C76.4613 46.9782 76.1536 47.0551 75.8459 47.132C75.8459 47.132 75.8459 47.132 75.769 47.132C75.2305 46.9782 72.769 44.6718 72.4613 43.9798C72.1536 43.2879 70.6152 41.0583 70.2305 40.597C70.2305 40.5202 70.2305 40.4433 70.1536 40.3664C70.1536 40.3664 69.2305 38.9057 68.9998 39.2901C68.769 39.7513 68.4613 40.1358 68.769 40.4433C68.9998 40.7508 69.4613 41.1352 69.6921 41.1352C70.2305 41.904 70.9998 43.211 71.8459 44.518C72.769 45.9019 73.8459 47.5164 74.3075 47.9777C74.3844 48.0546 74.3844 48.0546 74.3844 48.0546C73.0767 49.3616 72.769 49.2078 71.769 50.2073C71.4613 50.5148 71.3075 50.7454 71.0767 50.9761C70.3844 51.3605 69.769 51.8218 69.5382 52.5906C69.3844 53.2825 68.5382 54.282 67.9229 54.9739L68.4613 56.3578C68.5382 56.1271 68.6152 56.0503 68.6921 56.0503ZM94.3844 42.6728C95.3075 41.3659 95.6152 40.2895 95.6921 39.4438C96.8459 39.3669 99.8459 39.4438 100.154 39.2901C100.461 39.1363 101.307 35.9073 101.538 34.0621C102 33.9083 102.538 33.5239 102.538 33.5239C102.615 33.4471 102.692 33.4471 102.692 33.3702C103.231 33.0626 105.538 31.7557 106.154 31.2944C106.461 31.0637 107.461 30.6793 108.384 30.3718C107.615 31.7557 107.231 31.7557 106.615 32.9089C106.231 33.5239 106.077 34.0621 106 34.5234C105.923 34.5234 105.923 34.5234 105.923 34.6003C105.923 34.6003 104.923 36.6761 103.538 39.0594C102.461 40.9046 100.692 43.4417 100.384 43.6723C99.6921 44.3642 101.154 44.2105 102.077 43.903C102.615 43.6723 105.538 42.8266 102.077 42.9804C101.923 42.9804 103.615 40.9815 104.692 39.4438C105.615 38.0599 106.692 36.9836 107.384 36.3686C107.538 36.4454 107.692 36.5223 107.846 36.4454C108.769 36.2148 112.154 34.9847 112.538 35.1384C112.923 35.2922 112.846 39.3669 113.077 40.3664C113.307 41.2121 114.615 39.982 115.384 39.1363L112.692 41.9809L98.9229 44.7487L95.3075 52.2062H95.1536C95.5382 52.0524 94.6152 51.668 93.6152 51.5911C92.5382 51.5142 95.3075 49.054 96.1536 48.1314C96.9998 47.2089 97.3844 47.2857 96.1536 46.3632C95.3844 45.7481 94.0767 44.7487 93.3075 44.1336C93.6152 43.7492 93.9998 43.2879 94.3844 42.6728Z" fill="#213D49"/>
<path d="M127.308 8.38378C128.846 7.84561 130.385 7.4612 132 7.76873C132.385 7.84561 132.692 7.92249 133.077 7.99938C135.154 8.38378 136.538 9.9983 138.615 10.3827C138.615 10.3827 138.615 10.2289 138.692 9.84454C138.692 9.53701 138.769 9.30636 138.769 8.99884C138.923 7.30744 138.538 5.53916 138.923 3.694C136.846 3.46336 135.385 1.92573 133.462 1.69508C133.154 1.6182 132.769 1.6182 132.462 1.54132C132.231 1.54132 132 1.46444 131.692 1.46444C129.846 1.15691 128.077 0.618738 126.308 0.0805664C126.231 0.388093 126.231 0.69562 126.154 0.926265C126.154 1.23379 126.077 1.54132 126.077 1.77196C125.923 3.92465 125.615 5.92357 125.846 8.15314C125.769 8.46067 126.769 8.61443 127.308 8.38378Z" fill="#D2171C"/>
</g>
<defs>
<clipPath id="clip0">
<rect width="151" height="86.1075" fill="white" transform="translate(0 0.157227)"/>
</clipPath>
</defs>
</svg>
