<svg width="19" height="19" viewBox="0 0 19 19" fill="none" xmlns="http://www.w3.org/2000/svg">
<mask id="mask0" mask-type="alpha" maskUnits="userSpaceOnUse" x="0" y="0" width="19" height="19">
<path fill-rule="evenodd" clip-rule="evenodd" d="M0.215332 0.758789H18.2033V18.7588H0.215332V0.758789Z" fill="white"/>
</mask>
<g mask="url(#mask0)">
<path fill-rule="evenodd" clip-rule="evenodd" d="M9.20845 12.7487C7.56068 12.7487 6.22087 11.4089 6.22087 9.75812C6.22087 8.10735 7.55868 6.76853 9.20845 6.76853C10.8582 6.76853 12.198 8.10735 12.198 9.75812C12.198 11.4089 10.8582 12.7487 9.20845 12.7487ZM13.9933 3.89395C13.3994 3.89395 12.9164 4.37589 12.9164 4.97081C12.9164 5.56372 13.3994 6.04666 13.9933 6.04666C14.5872 6.04666 15.0701 5.56372 15.0701 4.97081C15.0701 4.37589 14.5872 3.89395 13.9933 3.89395ZM9.20802 5.14931C6.66737 5.14931 4.60366 7.21303 4.60366 9.75867C4.60366 12.3033 6.66737 14.364 9.20802 14.364C11.7527 14.364 13.8144 12.3033 13.8144 9.75867C13.8144 7.21303 11.7527 5.14931 9.20802 5.14931ZM18.1201 13.4569C18.0761 14.4108 17.9241 15.0637 17.7002 15.6346C17.4772 16.2255 17.1702 16.7235 16.6683 17.2194C16.1704 17.7213 15.6694 18.0273 15.0795 18.2603C14.5096 18.4792 13.8597 18.6312 12.9068 18.6762C10.4562 18.7862 7.96251 18.7862 5.51185 18.6762C4.55998 18.6312 3.90907 18.4792 3.33715 18.2603C2.74823 18.0293 2.2483 17.7213 1.75037 17.2194C1.25344 16.7195 0.945481 16.2255 0.716513 15.6346C0.493543 15.0637 0.342564 14.4108 0.29857 13.4569C0.187586 11.0023 0.187586 8.5146 0.29857 6.06094C0.342564 5.10307 0.493543 4.45416 0.716513 3.88324C0.943481 3.29432 1.25344 2.79239 1.75037 2.29446C2.2483 1.79753 2.74823 1.48558 3.33715 1.25961C3.90907 1.03964 4.55998 0.883659 5.51185 0.844664C7.96451 0.72968 10.4562 0.72968 12.9068 0.843664C13.8597 0.883659 14.5096 1.03764 15.0795 1.25961C15.6694 1.48957 16.1704 1.79753 16.6683 2.29446C17.1702 2.79239 17.4732 3.29432 17.7002 3.88324C17.9241 4.45416 18.0761 5.10607 18.1201 6.06094C18.2311 8.5146 18.2311 11.0023 18.1201 13.4569Z" fill="#D21218"/>
</g>
</svg>
