<svg width="667" height="74" viewBox="0 0 667 74" fill="none" xmlns="http://www.w3.org/2000/svg">
<path opacity="0.8" d="M26.0415 44.88H22.0415V48.88H26.0415V44.88ZM27.9315 37.86L31.2432 40.1034L31.2596 40.0791L31.2757 40.0546L27.9315 37.86ZM33.3315 31.65L36.0846 34.5519L36.0931 34.5437L36.1017 34.5355L33.3315 31.65ZM36.5715 28.14L33.4481 25.6412L33.3956 25.7068L33.3459 25.7745L36.5715 28.14ZM35.9415 22.2L33.6828 25.5012L33.7434 25.5427L33.8056 25.582L35.9415 22.2ZM26.2215 22.74L28.3846 26.1047L28.4264 26.0778L28.4675 26.0499L26.2215 22.74ZM22.2615 27.15L20.4727 30.7277L24.0048 32.4938L25.816 28.9846L22.2615 27.15ZM6.24153 19.14L2.70186 17.277L0.799655 20.8912L4.45268 22.7177L6.24153 19.14ZM16.8615 8.43L14.9492 4.91672L14.9398 4.92185L14.9304 4.92703L16.8615 8.43ZM52.1415 9.06L49.9431 12.4017L49.9431 12.4017L52.1415 9.06ZM57.6315 28.41L54.0097 26.7123L53.9977 26.7379L53.986 26.7637L57.6315 28.41ZM54.5715 33.18L57.4681 35.9386L57.5001 35.905L57.5313 35.8707L54.5715 33.18ZM49.9815 37.41L47.4111 34.3452L47.379 34.3721L47.3475 34.3997L49.9815 37.41ZM45.8415 41.46L42.7538 38.9172L42.7538 38.9172L45.8415 41.46ZM44.5815 44.88V48.88H48.5815V44.88H44.5815ZM26.7615 66.75L24.0127 69.6559L26.7615 66.75ZM26.7615 51.54L29.424 54.5252L29.4462 54.5054L29.468 54.4853L26.7615 51.54ZM43.8615 51.54L41.155 54.4853L41.1769 54.5054L41.1991 54.5252L43.8615 51.54ZM43.8615 66.75L46.6103 69.6559L43.8615 66.75ZM30.0415 44.88C30.0415 42.6552 30.5342 41.15 31.2432 40.1034L24.6199 35.6166C22.8089 38.29 22.0415 41.4648 22.0415 44.88H30.0415ZM31.2757 40.0546C32.3139 38.4726 33.8858 36.6378 36.0846 34.5519L30.5785 28.7481C28.0972 31.1022 26.0691 33.4074 24.5873 35.6654L31.2757 40.0546ZM36.1017 34.5355C37.6521 33.0472 38.9303 31.6875 39.7972 30.5054L33.3459 25.7745C32.8927 26.3925 32.011 27.3728 30.5614 28.7644L36.1017 34.5355ZM39.695 30.6388C40.9045 29.1269 41.6515 27.3055 41.6515 25.26H33.6515C33.6515 25.2878 33.6487 25.3072 33.6362 25.3405C33.6216 25.3795 33.5767 25.4805 33.4481 25.6412L39.695 30.6388ZM41.6515 25.26C41.6515 22.5321 40.3476 20.2518 38.0775 18.818L33.8056 25.582C33.8571 25.6145 33.8602 25.6238 33.8367 25.6C33.8115 25.5743 33.7713 25.5261 33.7323 25.4563C33.6931 25.3862 33.67 25.3208 33.6583 25.2729C33.6472 25.2274 33.6515 25.2187 33.6515 25.26H41.6515ZM38.2003 18.8988C36.2407 17.558 33.9579 17.03 31.6215 17.03V25.03C32.7651 25.03 33.3624 25.282 33.6828 25.5012L38.2003 18.8988ZM31.6215 17.03C28.8535 17.03 26.2781 17.8676 23.9755 19.4301L28.4675 26.0499C29.525 25.3323 30.5496 25.03 31.6215 25.03V17.03ZM24.0585 19.3753C21.7598 20.8531 19.9726 22.8634 18.707 25.3154L25.816 28.9846C26.4704 27.7166 27.3233 26.7869 28.3846 26.1047L24.0585 19.3753ZM24.0504 23.5723L8.03038 15.5623L4.45268 22.7177L20.4727 30.7277L24.0504 23.5723ZM9.7812 21.003C11.8029 17.1618 14.7708 14.1501 18.7927 11.933L14.9304 4.92703C9.59225 7.86986 5.48018 11.9982 2.70186 17.277L9.7812 21.003ZM18.7738 11.9433C22.7859 9.75949 27.908 8.56 34.3215 8.56V0.559999C26.9351 0.559999 20.4172 1.9405 14.9492 4.91672L18.7738 11.9433ZM34.3215 8.56C41.1205 8.56 46.2238 9.95479 49.9431 12.4017L54.34 5.71833C48.9393 2.16521 42.1626 0.559999 34.3215 0.559999V8.56ZM49.9431 12.4017C53.3781 14.6616 54.9815 17.6356 54.9815 21.75H62.9815C62.9815 14.9444 60.0249 9.45841 54.34 5.71833L49.9431 12.4017ZM54.9815 21.75C54.9815 23.7925 54.6181 25.4144 54.0097 26.7123L61.2534 30.1077C62.445 27.5656 62.9815 24.7475 62.9815 21.75H54.9815ZM53.986 26.7637C53.2941 28.2958 52.4926 29.5204 51.6118 30.4893L57.5313 35.8707C59.0504 34.1996 60.2889 32.2442 61.277 30.0563L53.986 26.7637ZM51.675 30.4214C50.6091 31.5405 49.1977 32.8468 47.4111 34.3452L52.552 40.4748C54.4854 38.8532 56.1339 37.3395 57.4681 35.9386L51.675 30.4214ZM47.3475 34.3997C45.3849 36.117 43.8063 37.6391 42.7538 38.9172L48.9293 44.0028C49.5568 43.2409 50.7382 42.063 52.6156 40.4203L47.3475 34.3997ZM42.7538 38.9172C41.3551 40.6156 40.5815 42.6445 40.5815 44.88H48.5815C48.5815 44.5955 48.6479 44.3444 48.9293 44.0028L42.7538 38.9172ZM44.5815 40.88H26.0415V48.88H44.5815V40.88ZM35.3115 65.9C32.7009 65.9 30.8834 65.143 29.5103 63.8441L24.0127 69.6559C27.0797 72.557 30.9621 73.9 35.3115 73.9V65.9ZM29.5103 63.8441C28.0722 62.4837 27.4315 60.9776 27.4315 59.1H19.4315C19.4315 63.2224 21.0109 66.8163 24.0127 69.6559L29.5103 63.8441ZM27.4315 59.1C27.4315 57.1429 28.0824 55.7218 29.424 54.5252L24.0991 48.5548C21.0007 51.3182 19.4315 54.9371 19.4315 59.1H27.4315ZM29.468 54.4853C30.8366 53.2277 32.6686 52.48 35.3115 52.48V44.48C30.9944 44.48 27.1265 45.7723 24.055 48.5947L29.468 54.4853ZM35.3115 52.48C37.9544 52.48 39.7865 53.2277 41.155 54.4853L46.568 48.5947C43.4966 45.7722 39.6286 44.48 35.3115 44.48V52.48ZM41.1991 54.5252C42.5407 55.7218 43.1915 57.1429 43.1915 59.1H51.1915C51.1915 54.9371 49.6224 51.3182 46.524 48.5548L41.1991 54.5252ZM43.1915 59.1C43.1915 60.9776 42.5509 62.4837 41.1127 63.8441L46.6103 69.6559C49.6122 66.8163 51.1915 63.2224 51.1915 59.1H43.1915ZM41.1127 63.8441C39.7397 65.143 37.9221 65.9 35.3115 65.9V73.9C39.6609 73.9 43.5434 72.557 46.6103 69.6559L41.1127 63.8441ZM108.522 6V2H104.083L104.543 6.41442L108.522 6ZM132.822 6L136.8 6.41442L137.26 2H132.822V6ZM128.772 44.88V48.88H132.377L132.75 45.2944L128.772 44.88ZM112.572 44.88L108.593 45.2944L108.967 48.88H112.572V44.88ZM112.122 66.75L109.373 69.6559L112.122 66.75ZM112.122 51.54L114.784 54.5252L114.806 54.5054L114.828 54.4853L112.122 51.54ZM129.222 51.54L126.515 54.4853L126.537 54.5054L126.559 54.5252L129.222 51.54ZM129.222 66.75L131.97 69.6559L129.222 66.75ZM108.522 10H132.822V2H108.522V10ZM128.843 5.58557L124.793 44.4656L132.75 45.2944L136.8 6.41442L128.843 5.58557ZM128.772 40.88H112.572V48.88H128.772V40.88ZM116.55 44.4656L112.5 5.58557L104.543 6.41442L108.593 45.2944L116.55 44.4656ZM120.672 65.9C118.061 65.9 116.243 65.143 114.87 63.8441L109.373 69.6559C112.44 72.557 116.322 73.9 120.672 73.9V65.9ZM114.87 63.8441C113.432 62.4837 112.792 60.9776 112.792 59.1H104.792C104.792 63.2224 106.371 66.8163 109.373 69.6559L114.87 63.8441ZM112.792 59.1C112.792 57.1429 113.442 55.7218 114.784 54.5252L109.459 48.5548C106.361 51.3182 104.792 54.9371 104.792 59.1H112.792ZM114.828 54.4853C116.197 53.2277 118.029 52.48 120.672 52.48V44.48C116.355 44.48 112.487 45.7723 109.415 48.5947L114.828 54.4853ZM120.672 52.48C123.315 52.48 125.147 53.2277 126.515 54.4853L131.928 48.5947C128.857 45.7723 124.989 44.48 120.672 44.48V52.48ZM126.559 54.5252C127.901 55.7218 128.552 57.1429 128.552 59.1H136.552C136.552 54.9371 134.982 51.3182 131.884 48.5548L126.559 54.5252ZM128.552 59.1C128.552 60.9776 127.911 62.4837 126.473 63.8441L131.97 69.6559C134.972 66.8163 136.552 63.2224 136.552 59.1H128.552ZM126.473 63.8441C125.1 65.143 123.282 65.9 120.672 65.9V73.9C125.021 73.9 128.903 72.557 131.97 69.6559L126.473 63.8441ZM181.372 6V2H176.934L177.394 6.41442L181.372 6ZM205.672 6L209.651 6.41442L210.111 2H205.672V6ZM201.622 44.88V48.88H205.227L205.601 45.2944L201.622 44.88ZM185.422 44.88L181.444 45.2944L181.817 48.88H185.422V44.88ZM184.972 66.75L182.224 69.6559L184.972 66.75ZM184.972 51.54L187.635 54.5252L187.657 54.5054L187.679 54.4853L184.972 51.54ZM202.072 51.54L199.366 54.4853L199.388 54.5054L199.41 54.5252L202.072 51.54ZM202.072 66.75L204.821 69.6559L202.072 66.75ZM181.372 10H205.672V2H181.372V10ZM201.694 5.58557L197.644 44.4656L205.601 45.2944L209.651 6.41442L201.694 5.58557ZM201.622 40.88H185.422V48.88H201.622V40.88ZM189.401 44.4656L185.351 5.58557L177.394 6.41442L181.444 45.2944L189.401 44.4656ZM193.522 65.9C190.912 65.9 189.094 65.143 187.721 63.8441L182.224 69.6559C185.291 72.557 189.173 73.9 193.522 73.9V65.9ZM187.721 63.8441C186.283 62.4837 185.642 60.9776 185.642 59.1H177.642C177.642 63.2224 179.222 66.8163 182.224 69.6559L187.721 63.8441ZM185.642 59.1C185.642 57.1429 186.293 55.7218 187.635 54.5252L182.31 48.5548C179.212 51.3182 177.642 54.9371 177.642 59.1H185.642ZM187.679 54.4853C189.047 53.2277 190.879 52.48 193.522 52.48V44.48C189.205 44.48 185.337 45.7723 182.266 48.5947L187.679 54.4853ZM193.522 52.48C196.165 52.48 197.997 53.2277 199.366 54.4853L204.779 48.5947C201.707 45.7723 197.839 44.48 193.522 44.48V52.48ZM199.41 54.5252C200.752 55.7218 201.402 57.1429 201.402 59.1H209.402C209.402 54.9371 207.833 51.3182 204.735 48.5548L199.41 54.5252ZM201.402 59.1C201.402 60.9776 200.762 62.4837 199.324 63.8441L204.821 69.6559C207.823 66.8163 209.402 63.2224 209.402 59.1H201.402ZM199.324 63.8441C197.951 65.143 196.133 65.9 193.522 65.9V73.9C197.872 73.9 201.754 72.557 204.821 69.6559L199.324 63.8441ZM254.223 6V2H249.785L250.245 6.41442L254.223 6ZM278.523 6L282.502 6.41442L282.961 2H278.523V6ZM274.473 44.88V48.88H278.078L278.452 45.2944L274.473 44.88ZM258.273 44.88L254.295 45.2944L254.668 48.88H258.273V44.88ZM257.823 66.75L255.074 69.6559L257.823 66.75ZM257.823 51.54L260.486 54.5252L260.508 54.5054L260.53 54.4853L257.823 51.54ZM274.923 51.54L272.217 54.4853L272.239 54.5054L272.261 54.5252L274.923 51.54ZM274.923 66.75L277.672 69.6559L274.923 66.75ZM254.223 10H278.523V2H254.223V10ZM274.545 5.58557L270.495 44.4656L278.452 45.2944L282.502 6.41442L274.545 5.58557ZM274.473 40.88H258.273V48.88H274.473V40.88ZM262.252 44.4656L258.202 5.58557L250.245 6.41442L254.295 45.2944L262.252 44.4656ZM266.373 65.9C263.763 65.9 261.945 65.143 260.572 63.8441L255.074 69.6559C258.141 72.557 262.024 73.9 266.373 73.9V65.9ZM260.572 63.8441C259.134 62.4837 258.493 60.9776 258.493 59.1H250.493C250.493 63.2224 252.073 66.8163 255.074 69.6559L260.572 63.8441ZM258.493 59.1C258.493 57.1429 259.144 55.7218 260.486 54.5252L255.161 48.5548C252.062 51.3182 250.493 54.9371 250.493 59.1H258.493ZM260.53 54.4853C261.898 53.2277 263.73 52.48 266.373 52.48V44.48C262.056 44.48 258.188 45.7723 255.117 48.5947L260.53 54.4853ZM266.373 52.48C269.016 52.48 270.848 53.2277 272.217 54.4853L277.63 48.5947C274.558 45.7723 270.69 44.48 266.373 44.48V52.48ZM272.261 54.5252C273.602 55.7218 274.253 57.1429 274.253 59.1H282.253C282.253 54.9371 280.684 51.3182 277.586 48.5548L272.261 54.5252ZM274.253 59.1C274.253 60.9776 273.613 62.4837 272.174 63.8441L277.672 69.6559C280.674 66.8163 282.253 63.2224 282.253 59.1H274.253ZM272.174 63.8441C270.801 65.143 268.984 65.9 266.373 65.9V73.9C270.723 73.9 274.605 72.557 277.672 69.6559L272.174 63.8441ZM343.724 44.88H339.724V48.88H343.724V44.88ZM345.614 37.86L348.926 40.1034L348.942 40.0791L348.958 40.0546L345.614 37.86ZM351.014 31.65L353.767 34.5519L353.776 34.5437L353.784 34.5355L351.014 31.65ZM354.254 28.14L351.13 25.6412L351.078 25.7068L351.028 25.7745L354.254 28.14ZM353.624 22.2L351.365 25.5012L351.426 25.5427L351.488 25.582L353.624 22.2ZM343.904 22.74L346.067 26.1047L346.109 26.0778L346.15 26.0499L343.904 22.74ZM339.944 27.15L338.155 30.7277L341.687 32.4938L343.498 28.9846L339.944 27.15ZM323.924 19.14L320.384 17.277L318.482 20.8912L322.135 22.7177L323.924 19.14ZM334.544 8.43L332.632 4.91672L332.622 4.92185L332.613 4.92703L334.544 8.43ZM369.824 9.06L367.625 12.4017V12.4017L369.824 9.06ZM375.314 28.41L371.692 26.7123L371.68 26.7379L371.668 26.7637L375.314 28.41ZM372.254 33.18L375.151 35.9386L375.183 35.905L375.214 35.8707L372.254 33.18ZM367.664 37.41L365.094 34.3452L365.061 34.3721L365.03 34.3997L367.664 37.41ZM363.524 41.46L360.436 38.9172V38.9172L363.524 41.46ZM362.264 44.88V48.88H366.264V44.88H362.264ZM344.444 66.75L341.695 69.6559L344.444 66.75ZM344.444 51.54L347.106 54.5252L347.129 54.5054L347.15 54.4853L344.444 51.54ZM361.544 51.54L358.837 54.4853L358.859 54.5054L358.882 54.5252L361.544 51.54ZM361.544 66.75L364.293 69.6559L361.544 66.75ZM347.724 44.88C347.724 42.6552 348.217 41.15 348.926 40.1034L342.302 35.6166C340.491 38.29 339.724 41.4648 339.724 44.88H347.724ZM348.958 40.0546C349.996 38.4726 351.568 36.6378 353.767 34.5519L348.261 28.7481C345.78 31.1022 343.752 33.4074 342.27 35.6654L348.958 40.0546ZM353.784 34.5355C355.334 33.0472 356.613 31.6875 357.48 30.5054L351.028 25.7745C350.575 26.3925 349.693 27.3728 348.244 28.7644L353.784 34.5355ZM357.377 30.6388C358.587 29.1269 359.334 27.3055 359.334 25.26H351.334C351.334 25.2878 351.331 25.3072 351.319 25.3405C351.304 25.3795 351.259 25.4805 351.13 25.6412L357.377 30.6388ZM359.334 25.26C359.334 22.5321 358.03 20.2518 355.76 18.818L351.488 25.582C351.54 25.6145 351.543 25.6238 351.519 25.6C351.494 25.5743 351.454 25.5261 351.415 25.4563C351.376 25.3862 351.352 25.3208 351.341 25.2729C351.33 25.2274 351.334 25.2187 351.334 25.26H359.334ZM355.883 18.8988C353.923 17.558 351.64 17.03 349.304 17.03V25.03C350.448 25.03 351.045 25.282 351.365 25.5012L355.883 18.8988ZM349.304 17.03C346.536 17.03 343.961 17.8676 341.658 19.4301L346.15 26.0499C347.207 25.3323 348.232 25.03 349.304 25.03V17.03ZM341.741 19.3753C339.442 20.8531 337.655 22.8634 336.389 25.3154L343.498 28.9846C344.153 27.7166 345.006 26.7869 346.067 26.1047L341.741 19.3753ZM341.733 23.5723L325.713 15.5623L322.135 22.7177L338.155 30.7277L341.733 23.5723ZM327.464 21.003C329.485 17.1618 332.453 14.1501 336.475 11.933L332.613 4.92703C327.275 7.86986 323.163 11.9982 320.384 17.277L327.464 21.003ZM336.456 11.9433C340.468 9.75949 345.59 8.56 352.004 8.56V0.559999C344.618 0.559999 338.1 1.9405 332.632 4.91672L336.456 11.9433ZM352.004 8.56C358.803 8.56 363.906 9.95479 367.625 12.4017L372.022 5.71833C366.622 2.16521 359.845 0.559999 352.004 0.559999V8.56ZM367.625 12.4017C371.061 14.6616 372.664 17.6356 372.664 21.75H380.664C380.664 14.9444 377.707 9.45841 372.022 5.71833L367.625 12.4017ZM372.664 21.75C372.664 23.7925 372.301 25.4144 371.692 26.7123L378.936 30.1077C380.127 27.5656 380.664 24.7475 380.664 21.75H372.664ZM371.668 26.7637C370.977 28.2958 370.175 29.5204 369.294 30.4893L375.214 35.8707C376.733 34.1996 377.971 32.2442 378.959 30.0563L371.668 26.7637ZM369.357 30.4214C368.292 31.5405 366.88 32.8468 365.094 34.3452L370.234 40.4748C372.168 38.8532 373.816 37.3395 375.151 35.9386L369.357 30.4214ZM365.03 34.3997C363.067 36.117 361.489 37.6391 360.436 38.9172L366.612 44.0028C367.239 43.2409 368.421 42.063 370.298 40.4203L365.03 34.3997ZM360.436 38.9172C359.038 40.6156 358.264 42.6445 358.264 44.88H366.264C366.264 44.5955 366.33 44.3444 366.612 44.0028L360.436 38.9172ZM362.264 40.88H343.724V48.88H362.264V40.88ZM352.994 65.9C350.383 65.9 348.566 65.143 347.193 63.8441L341.695 69.6559C344.762 72.557 348.645 73.9 352.994 73.9V65.9ZM347.193 63.8441C345.755 62.4837 345.114 60.9776 345.114 59.1H337.114C337.114 63.2224 338.693 66.8163 341.695 69.6559L347.193 63.8441ZM345.114 59.1C345.114 57.1429 345.765 55.7218 347.106 54.5252L341.781 48.5548C338.683 51.3182 337.114 54.9371 337.114 59.1H345.114ZM347.15 54.4853C348.519 53.2277 350.351 52.48 352.994 52.48V44.48C348.677 44.48 344.809 45.7723 341.737 48.5947L347.15 54.4853ZM352.994 52.48C355.637 52.48 357.469 53.2277 358.837 54.4853L364.25 48.5947C361.179 45.7722 357.311 44.48 352.994 44.48V52.48ZM358.882 54.5252C360.223 55.7218 360.874 57.1429 360.874 59.1H368.874C368.874 54.9371 367.305 51.3182 364.206 48.5548L358.882 54.5252ZM360.874 59.1C360.874 60.9776 360.233 62.4837 358.795 63.8441L364.293 69.6559C367.295 66.8163 368.874 63.2224 368.874 59.1H360.874ZM358.795 63.8441C357.422 65.143 355.605 65.9 352.994 65.9V73.9C357.343 73.9 361.226 72.557 364.293 69.6559L358.795 63.8441ZM442.415 44.88H438.415V48.88H442.415V44.88ZM444.305 37.86L447.616 40.1034L447.633 40.0791L447.649 40.0546L444.305 37.86ZM449.705 31.65L452.458 34.5519L452.466 34.5437L452.475 34.5355L449.705 31.65ZM452.945 28.14L449.821 25.6412L449.769 25.7068L449.719 25.7745L452.945 28.14ZM452.315 22.2L450.056 25.5012L450.116 25.5427L450.179 25.582L452.315 22.2ZM442.595 22.74L444.758 26.1047L444.799 26.0778L444.841 26.0499L442.595 22.74ZM438.635 27.15L436.846 30.7277L440.378 32.4938L442.189 28.9846L438.635 27.15ZM422.615 19.14L419.075 17.277L417.173 20.8912L420.826 22.7177L422.615 19.14ZM433.235 8.43L431.322 4.91672L431.313 4.92185L431.303 4.92703L433.235 8.43ZM468.515 9.06L466.316 12.4017V12.4017L468.515 9.06ZM474.005 28.41L470.383 26.7123L470.371 26.7379L470.359 26.7637L474.005 28.41ZM470.945 33.18L473.841 35.9386L473.873 35.905L473.904 35.8707L470.945 33.18ZM466.355 37.41L463.784 34.3452L463.752 34.3721L463.721 34.3997L466.355 37.41ZM462.215 41.46L459.127 38.9172V38.9172L462.215 41.46ZM460.955 44.88V48.88H464.955V44.88H460.955ZM443.135 66.75L440.386 69.6559L443.135 66.75ZM443.135 51.54L445.797 54.5252L445.819 54.5054L445.841 54.4853L443.135 51.54ZM460.235 51.54L457.528 54.4853L457.55 54.5054L457.572 54.5252L460.235 51.54ZM460.235 66.75L462.983 69.6559L460.235 66.75ZM446.415 44.88C446.415 42.6552 446.907 41.15 447.616 40.1034L440.993 35.6166C439.182 38.29 438.415 41.4648 438.415 44.88H446.415ZM447.649 40.0546C448.687 38.4726 450.259 36.6378 452.458 34.5519L446.952 28.7481C444.47 31.1022 442.442 33.4074 440.96 35.6654L447.649 40.0546ZM452.475 34.5355C454.025 33.0472 455.303 31.6875 456.17 30.5054L449.719 25.7745C449.266 26.3925 448.384 27.3728 446.934 28.7644L452.475 34.5355ZM456.068 30.6388C457.278 29.1269 458.025 27.3055 458.025 25.26H450.025C450.025 25.2878 450.022 25.3072 450.009 25.3405C449.995 25.3795 449.95 25.4805 449.821 25.6412L456.068 30.6388ZM458.025 25.26C458.025 22.5321 456.721 20.2518 454.451 18.818L450.179 25.582C450.23 25.6145 450.233 25.6238 450.21 25.6C450.185 25.5743 450.144 25.5261 450.105 25.4563C450.066 25.3862 450.043 25.3208 450.031 25.2729C450.02 25.2274 450.025 25.2187 450.025 25.26H458.025ZM454.573 18.8988C452.614 17.558 450.331 17.03 447.995 17.03V25.03C449.138 25.03 449.735 25.282 450.056 25.5012L454.573 18.8988ZM447.995 17.03C445.227 17.03 442.651 17.8676 440.349 19.4301L444.841 26.0499C445.898 25.3323 446.923 25.03 447.995 25.03V17.03ZM440.432 19.3753C438.133 20.8531 436.346 22.8634 435.08 25.3154L442.189 28.9846C442.843 27.7166 443.696 26.7869 444.758 26.1047L440.432 19.3753ZM440.423 23.5723L424.403 15.5623L420.826 22.7177L436.846 30.7277L440.423 23.5723ZM426.154 21.003C428.176 17.1618 431.144 14.1501 435.166 11.933L431.303 4.92703C425.965 7.86986 421.853 11.9982 419.075 17.277L426.154 21.003ZM435.147 11.9433C439.159 9.75949 444.281 8.56 450.695 8.56V0.559999C443.308 0.559999 436.79 1.9405 431.322 4.91672L435.147 11.9433ZM450.695 8.56C457.493 8.56 462.597 9.95479 466.316 12.4017L470.713 5.71833C465.312 2.16521 458.536 0.559999 450.695 0.559999V8.56ZM466.316 12.4017C469.751 14.6616 471.355 17.6356 471.355 21.75H479.355C479.355 14.9444 476.398 9.45841 470.713 5.71833L466.316 12.4017ZM471.355 21.75C471.355 23.7925 470.991 25.4144 470.383 26.7123L477.626 30.1077C478.818 27.5656 479.355 24.7475 479.355 21.75H471.355ZM470.359 26.7637C469.667 28.2958 468.866 29.5204 467.985 30.4893L473.904 35.8707C475.423 34.1996 476.662 32.2442 477.65 30.0563L470.359 26.7637ZM468.048 30.4214C466.982 31.5405 465.571 32.8468 463.784 34.3452L468.925 40.4748C470.858 38.8532 472.507 37.3395 473.841 35.9386L468.048 30.4214ZM463.721 34.3997C461.758 36.117 460.179 37.6391 459.127 38.9172L465.302 44.0028C465.93 43.2409 467.111 42.063 468.989 40.4203L463.721 34.3997ZM459.127 38.9172C457.728 40.6156 456.955 42.6445 456.955 44.88H464.955C464.955 44.5955 465.021 44.3444 465.302 44.0028L459.127 38.9172ZM460.955 40.88H442.415V48.88H460.955V40.88ZM451.685 65.9C449.074 65.9 447.256 65.143 445.883 63.8441L440.386 69.6559C443.453 72.557 447.335 73.9 451.685 73.9V65.9ZM445.883 63.8441C444.445 62.4837 443.805 60.9776 443.805 59.1H435.805C435.805 63.2224 437.384 66.8163 440.386 69.6559L445.883 63.8441ZM443.805 59.1C443.805 57.1429 444.455 55.7218 445.797 54.5252L440.472 48.5548C437.374 51.3182 435.805 54.9371 435.805 59.1H443.805ZM445.841 54.4853C447.21 53.2277 449.042 52.48 451.685 52.48V44.48C447.367 44.48 443.5 45.7723 440.428 48.5947L445.841 54.4853ZM451.685 52.48C454.327 52.48 456.16 53.2277 457.528 54.4853L462.941 48.5947C459.87 45.7722 456.002 44.48 451.685 44.48V52.48ZM457.572 54.5252C458.914 55.7218 459.565 57.1429 459.565 59.1H467.565C467.565 54.9371 465.995 51.3182 462.897 48.5548L457.572 54.5252ZM459.565 59.1C459.565 60.9776 458.924 62.4837 457.486 63.8441L462.983 69.6559C465.985 66.8163 467.565 63.2224 467.565 59.1H459.565ZM457.486 63.8441C456.113 65.143 454.295 65.9 451.685 65.9V73.9C456.034 73.9 459.916 72.557 462.983 69.6559L457.486 63.8441ZM524.895 6V2H520.456L520.916 6.41442L524.895 6ZM549.195 6L553.173 6.41442L553.633 2H549.195V6ZM545.145 44.88V48.88H548.75L549.123 45.2944L545.145 44.88ZM528.945 44.88L524.966 45.2944L525.34 48.88H528.945V44.88ZM528.495 66.75L525.746 69.6559L528.495 66.75ZM528.495 51.54L531.157 54.5252L531.179 54.5054L531.201 54.4853L528.495 51.54ZM545.595 51.54L542.888 54.4853L542.91 54.5054L542.932 54.5252L545.595 51.54ZM545.595 66.75L548.343 69.6559L545.595 66.75ZM524.895 10H549.195V2H524.895V10ZM545.216 5.58557L541.166 44.4656L549.123 45.2944L553.173 6.41442L545.216 5.58557ZM545.145 40.88H528.945V48.88H545.145V40.88ZM532.923 44.4656L528.873 5.58557L520.916 6.41442L524.966 45.2944L532.923 44.4656ZM537.045 65.9C534.434 65.9 532.617 65.143 531.243 63.8441L525.746 69.6559C528.813 72.557 532.695 73.9 537.045 73.9V65.9ZM531.243 63.8441C529.805 62.4837 529.165 60.9776 529.165 59.1H521.165C521.165 63.2224 522.744 66.8163 525.746 69.6559L531.243 63.8441ZM529.165 59.1C529.165 57.1429 529.815 55.7218 531.157 54.5252L525.832 48.5548C522.734 51.3182 521.165 54.9371 521.165 59.1H529.165ZM531.201 54.4853C532.57 53.2277 534.402 52.48 537.045 52.48V44.48C532.728 44.48 528.86 45.7723 525.788 48.5947L531.201 54.4853ZM537.045 52.48C539.688 52.48 541.52 53.2277 542.888 54.4853L548.301 48.5947C545.23 45.7723 541.362 44.48 537.045 44.48V52.48ZM542.932 54.5252C544.274 55.7218 544.925 57.1429 544.925 59.1H552.925C552.925 54.9371 551.356 51.3182 548.257 48.5548L542.932 54.5252ZM544.925 59.1C544.925 60.9776 544.284 62.4837 542.846 63.8441L548.343 69.6559C551.345 66.8163 552.925 63.2224 552.925 59.1H544.925ZM542.846 63.8441C541.473 65.143 539.655 65.9 537.045 65.9V73.9C541.394 73.9 545.277 72.557 548.343 69.6559L542.846 63.8441ZM614.395 44.88H610.395V48.88H614.395V44.88ZM616.285 37.86L619.597 40.1034L619.613 40.0791L619.63 40.0546L616.285 37.86ZM621.685 31.65L624.438 34.5519L624.447 34.5437L624.456 34.5355L621.685 31.65ZM624.925 28.14L621.802 25.6412L621.749 25.7068L621.7 25.7745L624.925 28.14ZM624.295 22.2L622.037 25.5012L622.097 25.5427L622.159 25.582L624.295 22.2ZM614.575 22.74L616.738 26.1047L616.78 26.0778L616.821 26.0499L614.575 22.74ZM610.615 27.15L608.827 30.7277L612.359 32.4938L614.17 28.9846L610.615 27.15ZM594.595 19.14L591.056 17.277L589.154 20.8912L592.807 22.7177L594.595 19.14ZM605.215 8.43L603.303 4.91672L603.294 4.92185L603.284 4.92703L605.215 8.43ZM640.495 9.06L638.297 12.4017V12.4017L640.495 9.06ZM645.985 28.41L642.364 26.7123L642.352 26.7379L642.34 26.7637L645.985 28.41ZM642.925 33.18L645.822 35.9386L645.854 35.905L645.885 35.8707L642.925 33.18ZM638.335 37.41L635.765 34.3452L635.733 34.3721L635.701 34.3997L638.335 37.41ZM634.195 41.46L631.108 38.9172V38.9172L634.195 41.46ZM632.935 44.88V48.88H636.935V44.88H632.935ZM615.115 66.75L612.367 69.6559L615.115 66.75ZM615.115 51.54L617.778 54.5252L617.8 54.5054L617.822 54.4853L615.115 51.54ZM632.215 51.54L629.509 54.4853L629.531 54.5054L629.553 54.5252L632.215 51.54ZM632.215 66.75L634.964 69.6559L632.215 66.75ZM618.395 44.88C618.395 42.6552 618.888 41.15 619.597 40.1034L612.974 35.6166C611.163 38.29 610.395 41.4648 610.395 44.88H618.395ZM619.63 40.0546C620.668 38.4726 622.24 36.6378 624.438 34.5519L618.932 28.7481C616.451 31.1022 614.423 33.4074 612.941 35.6654L619.63 40.0546ZM624.456 34.5355C626.006 33.0472 627.284 31.6875 628.151 30.5054L621.7 25.7745C621.247 26.3925 620.365 27.3728 618.915 28.7644L624.456 34.5355ZM628.049 30.6388C629.258 29.1269 630.005 27.3055 630.005 25.26H622.005C622.005 25.2878 622.003 25.3072 621.99 25.3405C621.975 25.3795 621.93 25.4805 621.802 25.6412L628.049 30.6388ZM630.005 25.26C630.005 22.5321 628.701 20.2518 626.431 18.818L622.159 25.582C622.211 25.6145 622.214 25.6238 622.191 25.6C622.165 25.5743 622.125 25.5261 622.086 25.4563C622.047 25.3862 622.024 25.3208 622.012 25.2729C622.001 25.2274 622.005 25.2187 622.005 25.26H630.005ZM626.554 18.8988C624.595 17.558 622.312 17.03 619.975 17.03V25.03C621.119 25.03 621.716 25.282 622.037 25.5012L626.554 18.8988ZM619.975 17.03C617.207 17.03 614.632 17.8676 612.329 19.4301L616.821 26.0499C617.879 25.3323 618.903 25.03 619.975 25.03V17.03ZM612.412 19.3753C610.114 20.8531 608.326 22.8634 607.061 25.3154L614.17 28.9846C614.824 27.7166 615.677 26.7869 616.738 26.1047L612.412 19.3753ZM612.404 23.5723L596.384 15.5623L592.807 22.7177L608.827 30.7277L612.404 23.5723ZM598.135 21.003C600.157 17.1618 603.125 14.1501 607.146 11.933L603.284 4.92703C597.946 7.86986 593.834 11.9982 591.056 17.277L598.135 21.003ZM607.128 11.9433C611.14 9.75949 616.262 8.56 622.675 8.56V0.559999C615.289 0.559999 608.771 1.9405 603.303 4.91672L607.128 11.9433ZM622.675 8.56C629.474 8.56 634.578 9.95479 638.297 12.4017L642.694 5.71833C637.293 2.16521 630.516 0.559999 622.675 0.559999V8.56ZM638.297 12.4017C641.732 14.6616 643.335 17.6356 643.335 21.75H651.335C651.335 14.9444 648.379 9.45841 642.694 5.71833L638.297 12.4017ZM643.335 21.75C643.335 23.7925 642.972 25.4144 642.364 26.7123L649.607 30.1077C650.799 27.5656 651.335 24.7475 651.335 21.75H643.335ZM642.34 26.7637C641.648 28.2958 640.846 29.5204 639.966 30.4893L645.885 35.8707C647.404 34.1996 648.643 32.2442 649.631 30.0563L642.34 26.7637ZM640.029 30.4214C638.963 31.5405 637.552 32.8468 635.765 34.3452L640.906 40.4748C642.839 38.8532 644.488 37.3395 645.822 35.9386L640.029 30.4214ZM635.701 34.3997C633.739 36.117 632.16 37.6391 631.108 38.9172L637.283 44.0028C637.911 43.2409 639.092 42.063 640.969 40.4203L635.701 34.3997ZM631.108 38.9172C629.709 40.6156 628.935 42.6445 628.935 44.88H636.935C636.935 44.5955 637.002 44.3444 637.283 44.0028L631.108 38.9172ZM632.935 40.88H614.395V48.88H632.935V40.88ZM623.665 65.9C621.055 65.9 619.237 65.143 617.864 63.8441L612.367 69.6559C615.434 72.557 619.316 73.9 623.665 73.9V65.9ZM617.864 63.8441C616.426 62.4837 615.785 60.9776 615.785 59.1H607.785C607.785 63.2224 609.365 66.8163 612.367 69.6559L617.864 63.8441ZM615.785 59.1C615.785 57.1429 616.436 55.7218 617.778 54.5252L612.453 48.5548C609.355 51.3182 607.785 54.9371 607.785 59.1H615.785ZM617.822 54.4853C619.19 53.2277 621.022 52.48 623.665 52.48V44.48C619.348 44.48 615.48 45.7723 612.409 48.5947L617.822 54.4853ZM623.665 52.48C626.308 52.48 628.14 53.2277 629.509 54.4853L634.922 48.5947C631.85 45.7722 627.982 44.48 623.665 44.48V52.48ZM629.553 54.5252C630.895 55.7218 631.545 57.1429 631.545 59.1H639.545C639.545 54.9371 637.976 51.3182 634.878 48.5548L629.553 54.5252ZM631.545 59.1C631.545 60.9776 630.905 62.4837 629.467 63.8441L634.964 69.6559C637.966 66.8163 639.545 63.2224 639.545 59.1H631.545ZM629.467 63.8441C628.094 65.143 626.276 65.9 623.665 65.9V73.9C628.015 73.9 631.897 72.557 634.964 69.6559L629.467 63.8441ZM713.086 44.88H709.086V48.88H713.086V44.88ZM714.976 37.86L718.288 40.1034L718.304 40.0791L718.32 40.0546L714.976 37.86ZM720.376 31.65L723.129 34.5519L723.138 34.5437L723.146 34.5355L720.376 31.65ZM723.616 28.14L720.493 25.6412L720.44 25.7068L720.39 25.7745L723.616 28.14ZM722.986 22.2L720.727 25.5012L720.788 25.5427L720.85 25.582L722.986 22.2ZM713.266 22.74L715.429 26.1047L715.471 26.0778L715.512 26.0499L713.266 22.74ZM709.306 27.15L707.517 30.7277L711.049 32.4938L712.861 28.9846L709.306 27.15ZM693.286 19.14L689.746 17.277L687.844 20.8912L691.497 22.7177L693.286 19.14ZM703.906 8.43L701.994 4.91672L701.984 4.92185L701.975 4.92703L703.906 8.43ZM739.186 9.06L736.988 12.4017V12.4017L739.186 9.06ZM744.676 28.41L741.054 26.7123L741.042 26.7379L741.031 26.7637L744.676 28.41ZM741.616 33.18L744.513 35.9386L744.545 35.905L744.576 35.8707L741.616 33.18ZM737.026 37.41L734.456 34.3452L734.424 34.3721L734.392 34.3997L737.026 37.41ZM732.886 41.46L729.798 38.9172V38.9172L732.886 41.46ZM731.626 44.88V48.88H735.626V44.88H731.626ZM713.806 66.75L711.057 69.6559L713.806 66.75ZM713.806 51.54L716.469 54.5252L716.491 54.5054L716.513 54.4853L713.806 51.54ZM730.906 51.54L728.2 54.4853L728.221 54.5054L728.244 54.5252L730.906 51.54ZM730.906 66.75L733.655 69.6559L730.906 66.75ZM717.086 44.88C717.086 42.6552 717.579 41.15 718.288 40.1034L711.664 35.6166C709.853 38.29 709.086 41.4648 709.086 44.88H717.086ZM718.32 40.0546C719.358 38.4726 720.93 36.6378 723.129 34.5519L717.623 28.7481C715.142 31.1022 713.114 33.4074 711.632 35.6654L718.32 40.0546ZM723.146 34.5355C724.697 33.0472 725.975 31.6875 726.842 30.5054L720.39 25.7745C719.937 26.3925 719.056 27.3728 717.606 28.7644L723.146 34.5355ZM726.74 30.6388C727.949 29.1269 728.696 27.3055 728.696 25.26H720.696C720.696 25.2878 720.693 25.3072 720.681 25.3405C720.666 25.3795 720.621 25.4805 720.493 25.6412L726.74 30.6388ZM728.696 25.26C728.696 22.5321 727.392 20.2518 725.122 18.818L720.85 25.582C720.902 25.6145 720.905 25.6238 720.881 25.6C720.856 25.5743 720.816 25.5261 720.777 25.4563C720.738 25.3862 720.714 25.3208 720.703 25.2729C720.692 25.2274 720.696 25.2187 720.696 25.26H728.696ZM725.245 18.8988C723.285 17.558 721.002 17.03 718.666 17.03V25.03C719.81 25.03 720.407 25.282 720.727 25.5012L725.245 18.8988ZM718.666 17.03C715.898 17.03 713.323 17.8676 711.02 19.4301L715.512 26.0499C716.57 25.3323 717.594 25.03 718.666 25.03V17.03ZM711.103 19.3753C708.804 20.8531 707.017 22.8634 705.752 25.3154L712.861 28.9846C713.515 27.7166 714.368 26.7869 715.429 26.1047L711.103 19.3753ZM711.095 23.5723L695.075 15.5623L691.497 22.7177L707.517 30.7277L711.095 23.5723ZM696.826 21.003C698.847 17.1618 701.815 14.1501 705.837 11.933L701.975 4.92703C696.637 7.86986 692.525 11.9982 689.746 17.277L696.826 21.003ZM705.818 11.9433C709.83 9.75949 714.953 8.56 721.366 8.56V0.559999C713.98 0.559999 707.462 1.9405 701.994 4.91672L705.818 11.9433ZM721.366 8.56C728.165 8.56 733.268 9.95479 736.988 12.4017L741.385 5.71833C735.984 2.16521 729.207 0.559999 721.366 0.559999V8.56ZM736.988 12.4017C740.423 14.6616 742.026 17.6356 742.026 21.75H750.026C750.026 14.9444 747.069 9.45841 741.385 5.71833L736.988 12.4017ZM742.026 21.75C742.026 23.7925 741.663 25.4144 741.054 26.7123L748.298 30.1077C749.49 27.5656 750.026 24.7475 750.026 21.75H742.026ZM741.031 26.7637C740.339 28.2958 739.537 29.5204 738.656 30.4893L744.576 35.8707C746.095 34.1996 747.333 32.2442 748.322 30.0563L741.031 26.7637ZM738.719 30.4214C737.654 31.5405 736.242 32.8468 734.456 34.3452L739.596 40.4748C741.53 38.8532 743.178 37.3395 744.513 35.9386L738.719 30.4214ZM734.392 34.3997C732.429 36.117 730.851 37.6391 729.798 38.9172L735.974 44.0028C736.601 43.2409 737.783 42.063 739.66 40.4203L734.392 34.3997ZM729.798 38.9172C728.4 40.6156 727.626 42.6445 727.626 44.88H735.626C735.626 44.5955 735.693 44.3444 735.974 44.0028L729.798 38.9172ZM731.626 40.88H713.086V48.88H731.626V40.88ZM722.356 65.9C719.745 65.9 717.928 65.143 716.555 63.8441L711.057 69.6559C714.124 72.557 718.007 73.9 722.356 73.9V65.9ZM716.555 63.8441C715.117 62.4837 714.476 60.9776 714.476 59.1H706.476C706.476 63.2224 708.055 66.8163 711.057 69.6559L716.555 63.8441ZM714.476 59.1C714.476 57.1429 715.127 55.7218 716.469 54.5252L711.144 48.5548C708.045 51.3182 706.476 54.9371 706.476 59.1H714.476ZM716.513 54.4853C717.881 53.2277 719.713 52.48 722.356 52.48V44.48C718.039 44.48 714.171 45.7723 711.1 48.5947L716.513 54.4853ZM722.356 52.48C724.999 52.48 726.831 53.2277 728.2 54.4853L733.613 48.5947C730.541 45.7722 726.673 44.48 722.356 44.48V52.48ZM728.244 54.5252C729.585 55.7218 730.236 57.1429 730.236 59.1H738.236C738.236 54.9371 736.667 51.3182 733.569 48.5548L728.244 54.5252ZM730.236 59.1C730.236 60.9776 729.595 62.4837 728.157 63.8441L733.655 69.6559C736.657 66.8163 738.236 63.2224 738.236 59.1H730.236ZM728.157 63.8441C726.784 65.143 724.967 65.9 722.356 65.9V73.9C726.705 73.9 730.588 72.557 733.655 69.6559L728.157 63.8441ZM795.566 6V2H791.128L791.588 6.41442L795.566 6ZM819.866 6L823.845 6.41442L824.305 2H819.866V6ZM815.816 44.88V48.88H819.421L819.795 45.2944L815.816 44.88ZM799.616 44.88L795.638 45.2944L796.011 48.88H799.616V44.88ZM799.166 66.75L796.417 69.6559L799.166 66.75ZM799.166 51.54L801.829 54.5252L801.851 54.5054L801.873 54.4853L799.166 51.54ZM816.266 51.54L813.56 54.4853L813.582 54.5054L813.604 54.5252L816.266 51.54ZM816.266 66.75L819.015 69.6559L816.266 66.75ZM795.566 10H819.866V2H795.566V10ZM815.888 5.58557L811.838 44.4656L819.795 45.2944L823.845 6.41442L815.888 5.58557ZM815.816 40.88H799.616V48.88H815.816V40.88ZM803.595 44.4656L799.545 5.58557L791.588 6.41442L795.638 45.2944L803.595 44.4656ZM807.716 65.9C805.106 65.9 803.288 65.143 801.915 63.8441L796.417 69.6559C799.484 72.557 803.367 73.9 807.716 73.9V65.9ZM801.915 63.8441C800.477 62.4837 799.836 60.9776 799.836 59.1H791.836C791.836 63.2224 793.416 66.8163 796.417 69.6559L801.915 63.8441ZM799.836 59.1C799.836 57.1429 800.487 55.7218 801.829 54.5252L796.504 48.5548C793.405 51.3182 791.836 54.9371 791.836 59.1H799.836ZM801.873 54.4853C803.241 53.2277 805.073 52.48 807.716 52.48V44.48C803.399 44.48 799.531 45.7723 796.46 48.5947L801.873 54.4853ZM807.716 52.48C810.359 52.48 812.191 53.2277 813.56 54.4853L818.973 48.5947C815.901 45.7723 812.033 44.48 807.716 44.48V52.48ZM813.604 54.5252C814.945 55.7218 815.596 57.1429 815.596 59.1H823.596C823.596 54.9371 822.027 51.3182 818.929 48.5548L813.604 54.5252ZM815.596 59.1C815.596 60.9776 814.956 62.4837 813.517 63.8441L819.015 69.6559C822.017 66.8163 823.596 63.2224 823.596 59.1H815.596ZM813.517 63.8441C812.144 65.143 810.327 65.9 807.716 65.9V73.9C812.066 73.9 815.948 72.557 819.015 69.6559L813.517 63.8441ZM868.417 6V2H863.979L864.438 6.41442L868.417 6ZM892.717 6L896.695 6.41442L897.155 2H892.717V6ZM888.667 44.88V48.88H892.272L892.645 45.2944L888.667 44.88ZM872.467 44.88L868.488 45.2944L868.862 48.88H872.467V44.88ZM872.017 66.75L869.268 69.6559L872.017 66.75ZM872.017 51.54L874.679 54.5252L874.702 54.5054L874.723 54.4853L872.017 51.54ZM889.117 51.54L886.41 54.4853L886.432 54.5054L886.454 54.5252L889.117 51.54ZM889.117 66.75L891.866 69.6559L889.117 66.75ZM868.417 10H892.717V2H868.417V10ZM888.738 5.58557L884.688 44.4656L892.645 45.2944L896.695 6.41442L888.738 5.58557ZM888.667 40.88H872.467V48.88H888.667V40.88ZM876.445 44.4656L872.395 5.58557L864.438 6.41442L868.488 45.2944L876.445 44.4656ZM880.567 65.9C877.956 65.9 876.139 65.143 874.766 63.8441L869.268 69.6559C872.335 72.557 876.217 73.9 880.567 73.9V65.9ZM874.766 63.8441C873.328 62.4837 872.687 60.9776 872.687 59.1H864.687C864.687 63.2224 866.266 66.8163 869.268 69.6559L874.766 63.8441ZM872.687 59.1C872.687 57.1429 873.338 55.7218 874.679 54.5252L869.354 48.5548C866.256 51.3182 864.687 54.9371 864.687 59.1H872.687ZM874.723 54.4853C876.092 53.2277 877.924 52.48 880.567 52.48V44.48C876.25 44.48 872.382 45.7723 869.31 48.5947L874.723 54.4853ZM880.567 52.48C883.21 52.48 885.042 53.2277 886.41 54.4853L891.823 48.5947C888.752 45.7723 884.884 44.48 880.567 44.48V52.48ZM886.454 54.5252C887.796 55.7218 888.447 57.1429 888.447 59.1H896.447C896.447 54.9371 894.878 51.3182 891.779 48.5548L886.454 54.5252ZM888.447 59.1C888.447 60.9776 887.806 62.4837 886.368 63.8441L891.866 69.6559C894.868 66.8163 896.447 63.2224 896.447 59.1H888.447ZM886.368 63.8441C884.995 65.143 883.177 65.9 880.567 65.9V73.9C884.916 73.9 888.799 72.557 891.866 69.6559L886.368 63.8441ZM941.268 6V2H936.829L937.289 6.41442L941.268 6ZM965.568 6L969.546 6.41442L970.006 2H965.568V6ZM961.518 44.88V48.88H965.123L965.496 45.2944L961.518 44.88ZM945.318 44.88L941.339 45.2944L941.713 48.88H945.318V44.88ZM944.868 66.75L942.119 69.6559L944.868 66.75ZM944.868 51.54L947.53 54.5252L947.552 54.5054L947.574 54.4853L944.868 51.54ZM961.968 51.54L959.261 54.4853L959.283 54.5054L959.305 54.5252L961.968 51.54ZM961.968 66.75L964.716 69.6559L961.968 66.75ZM941.268 10H965.568V2H941.268V10ZM961.589 5.58557L957.539 44.4656L965.496 45.2944L969.546 6.41442L961.589 5.58557ZM961.518 40.88H945.318V48.88H961.518V40.88ZM949.296 44.4656L945.246 5.58557L937.289 6.41442L941.339 45.2944L949.296 44.4656ZM953.418 65.9C950.807 65.9 948.99 65.143 947.617 63.8441L942.119 69.6559C945.186 72.557 949.068 73.9 953.418 73.9V65.9ZM947.617 63.8441C946.178 62.4837 945.538 60.9776 945.538 59.1H937.538C937.538 63.2224 939.117 66.8163 942.119 69.6559L947.617 63.8441ZM945.538 59.1C945.538 57.1429 946.189 55.7218 947.53 54.5252L942.205 48.5548C939.107 51.3182 937.538 54.9371 937.538 59.1H945.538ZM947.574 54.4853C948.943 53.2277 950.775 52.48 953.418 52.48V44.48C949.101 44.48 945.233 45.7723 942.161 48.5947L947.574 54.4853ZM953.418 52.48C956.061 52.48 957.893 53.2277 959.261 54.4853L964.674 48.5947C961.603 45.7723 957.735 44.48 953.418 44.48V52.48ZM959.305 54.5252C960.647 55.7218 961.298 57.1429 961.298 59.1H969.298C969.298 54.9371 967.729 51.3182 964.63 48.5548L959.305 54.5252ZM961.298 59.1C961.298 60.9776 960.657 62.4837 959.219 63.8441L964.716 69.6559C967.718 66.8163 969.298 63.2224 969.298 59.1H961.298ZM959.219 63.8441C957.846 65.143 956.028 65.9 953.418 65.9V73.9C957.767 73.9 961.65 72.557 964.716 69.6559L959.219 63.8441Z" fill="#EDF4FE"/>
</svg>
