<svg width="663" height="74" viewBox="0 0 663 74" fill="none" xmlns="http://www.w3.org/2000/svg">
<path opacity="0.8" d="M7.0177 44.88H3.0177V48.88H7.0177V44.88ZM8.9077 37.86L12.2194 40.1034L12.2358 40.0791L12.2519 40.0546L8.9077 37.86ZM14.3077 31.65L17.0607 34.5519L17.0693 34.5437L17.0778 34.5355L14.3077 31.65ZM17.5477 28.14L14.4242 25.6412L14.3717 25.7068L14.3221 25.7745L17.5477 28.14ZM16.9177 22.2L14.659 25.5012L14.7196 25.5427L14.7817 25.582L16.9177 22.2ZM7.1977 22.74L9.36072 26.1047L9.40256 26.0778L9.4437 26.0499L7.1977 22.74ZM3.2377 27.15L1.44884 30.7277L4.98098 32.4938L6.79218 28.9846L3.2377 27.15ZM-12.7823 19.14L-16.322 17.277L-18.2242 20.8912L-14.5712 22.7177L-12.7823 19.14ZM-2.1623 8.43L-4.0746 4.91672L-4.08402 4.92185L-4.09343 4.92703L-2.1623 8.43ZM33.1177 9.06L30.9192 12.4017L30.9192 12.4017L33.1177 9.06ZM38.6077 28.41L34.9859 26.7123L34.9739 26.7379L34.9622 26.7637L38.6077 28.41ZM35.5477 33.18L38.4443 35.9386L38.4762 35.905L38.5075 35.8707L35.5477 33.18ZM30.9577 37.41L28.3872 34.3452L28.3552 34.3721L28.3237 34.3997L30.9577 37.41ZM26.8177 41.46L23.73 38.9172L23.73 38.9172L26.8177 41.46ZM25.5577 44.88V48.88H29.5577V44.88H25.5577ZM7.7377 66.75L4.9889 69.6559L7.7377 66.75ZM7.7377 51.54L10.4002 54.5252L10.4223 54.5054L10.4442 54.4853L7.7377 51.54ZM24.8377 51.54L22.1312 54.4853L22.1531 54.5054L22.1752 54.5252L24.8377 51.54ZM24.8377 66.75L27.5865 69.6559L24.8377 66.75ZM11.0177 44.88C11.0177 42.6552 11.5104 41.15 12.2194 40.1034L5.59602 35.6166C3.78502 38.29 3.0177 41.4648 3.0177 44.88H11.0177ZM12.2519 40.0546C13.2901 38.4726 14.862 36.6378 17.0607 34.5519L11.5547 28.7481C9.0734 31.1022 7.04528 33.4074 5.56351 35.6654L12.2519 40.0546ZM17.0778 34.5355C18.6282 33.0472 19.9065 31.6875 20.7733 30.5054L14.3221 25.7745C13.8689 26.3925 12.9872 27.3728 11.5376 28.7644L17.0778 34.5355ZM20.6712 30.6388C21.8807 29.1269 22.6277 27.3055 22.6277 25.26H14.6277C14.6277 25.2878 14.6249 25.3072 14.6124 25.3405C14.5978 25.3795 14.5528 25.4805 14.4242 25.6412L20.6712 30.6388ZM22.6277 25.26C22.6277 22.5321 21.3238 20.2518 19.0537 18.818L14.7817 25.582C14.8333 25.6145 14.8364 25.6238 14.8129 25.6C14.7877 25.5743 14.7474 25.5261 14.7084 25.4563C14.6693 25.3862 14.6461 25.3208 14.6345 25.2729C14.6234 25.2274 14.6277 25.2187 14.6277 25.26H22.6277ZM19.1764 18.8988C17.2168 17.558 14.9341 17.03 12.5977 17.03V25.03C13.7413 25.03 14.3386 25.282 14.659 25.5012L19.1764 18.8988ZM12.5977 17.03C9.82964 17.03 7.25424 17.8676 4.95169 19.4301L9.4437 26.0499C10.5012 25.3323 11.5258 25.03 12.5977 25.03V17.03ZM5.03467 19.3753C2.73592 20.8531 0.948791 22.8634 -0.316787 25.3154L6.79218 28.9846C7.4466 27.7166 8.29947 26.7869 9.36072 26.1047L5.03467 19.3753ZM5.02655 23.5723L-10.9935 15.5623L-14.5712 22.7177L1.44884 30.7277L5.02655 23.5723ZM-9.24263 21.003C-7.22095 17.1618 -4.25303 14.1501 -0.231183 11.933L-4.09343 4.92703C-9.43158 7.86986 -13.5437 11.9982 -16.322 17.277L-9.24263 21.003ZM-0.250013 11.9433C3.76206 9.75949 8.88415 8.56 15.2977 8.56V0.559999C7.91125 0.559999 1.39334 1.9405 -4.0746 4.91672L-0.250013 11.9433ZM15.2977 8.56C22.0966 8.56 27.2 9.95479 30.9192 12.4017L35.3162 5.71833C29.9154 2.16521 23.1388 0.559999 15.2977 0.559999V8.56ZM30.9192 12.4017C34.3543 14.6616 35.9577 17.6356 35.9577 21.75H43.9577C43.9577 14.9444 41.0011 9.45841 35.3162 5.71833L30.9192 12.4017ZM35.9577 21.75C35.9577 23.7925 35.5942 25.4144 34.9859 26.7123L42.2295 30.1077C43.4211 27.5656 43.9577 24.7475 43.9577 21.75H35.9577ZM34.9622 26.7637C34.2703 28.2958 33.4688 29.5204 32.5879 30.4893L38.5075 35.8707C40.0266 34.1996 41.2651 32.2442 42.2532 30.0563L34.9622 26.7637ZM32.6511 30.4214C31.5853 31.5405 30.1739 32.8468 28.3872 34.3452L33.5281 40.4748C35.4615 38.8532 37.1101 37.3395 38.4443 35.9386L32.6511 30.4214ZM28.3237 34.3997C26.361 36.117 24.7825 37.6391 23.73 38.9172L29.9054 44.0028C30.5329 43.2409 31.7144 42.063 33.5917 40.4203L28.3237 34.3997ZM23.73 38.9172C22.3313 40.6156 21.5577 42.6445 21.5577 44.88H29.5577C29.5577 44.5955 29.6241 44.3444 29.9054 44.0028L23.73 38.9172ZM25.5577 40.88H7.0177V48.88H25.5577V40.88ZM16.2877 65.9C13.6771 65.9 11.8596 65.143 10.4865 63.8441L4.9889 69.6559C8.05584 72.557 11.9383 73.9 16.2877 73.9V65.9ZM10.4865 63.8441C9.04835 62.4837 8.4077 60.9776 8.4077 59.1H0.407696C0.407696 63.2224 1.98705 66.8163 4.9889 69.6559L10.4865 63.8441ZM8.4077 59.1C8.4077 57.1429 9.05852 55.7218 10.4002 54.5252L5.07524 48.5548C1.97687 51.3182 0.407696 54.9371 0.407696 59.1H8.4077ZM10.4442 54.4853C11.8127 53.2277 13.6448 52.48 16.2877 52.48V44.48C11.9706 44.48 8.10267 45.7723 5.03119 48.5947L10.4442 54.4853ZM16.2877 52.48C18.9306 52.48 20.7627 53.2277 22.1312 54.4853L27.5442 48.5947C24.4727 45.7722 20.6048 44.48 16.2877 44.48V52.48ZM22.1752 54.5252C23.5169 55.7218 24.1677 57.1429 24.1677 59.1H32.1677C32.1677 54.9371 30.5985 51.3182 27.5002 48.5548L22.1752 54.5252ZM24.1677 59.1C24.1677 60.9776 23.527 62.4837 22.0889 63.8441L27.5865 69.6559C30.5883 66.8163 32.1677 63.2224 32.1677 59.1H24.1677ZM22.0889 63.8441C20.7158 65.143 18.8983 65.9 16.2877 65.9V73.9C20.6371 73.9 24.5196 72.557 27.5865 69.6559L22.0889 63.8441ZM80.9478 6V2H76.5095L76.9693 6.41442L80.9478 6ZM105.248 6L109.226 6.41442L109.686 2H105.248V6ZM101.198 44.88V48.88H104.803L105.176 45.2944L101.198 44.88ZM84.9978 44.88L81.0193 45.2944L81.3928 48.88H84.9978V44.88ZM84.5478 66.75L81.799 69.6559L84.5478 66.75ZM84.5478 51.54L87.2102 54.5252L87.2324 54.5054L87.2543 54.4853L84.5478 51.54ZM101.648 51.54L98.9413 54.4853L98.9631 54.5054L98.9853 54.5252L101.648 51.54ZM101.648 66.75L104.397 69.6559L101.648 66.75ZM80.9478 10H105.248V2H80.9478V10ZM101.269 5.58557L97.2193 44.4656L105.176 45.2944L109.226 6.41442L101.269 5.58557ZM101.198 40.88H84.9978V48.88H101.198V40.88ZM88.9762 44.4656L84.9262 5.58557L76.9693 6.41442L81.0193 45.2944L88.9762 44.4656ZM93.0978 65.9C90.4872 65.9 88.6696 65.143 87.2966 63.8441L81.799 69.6559C84.8659 72.557 88.7484 73.9 93.0978 73.9V65.9ZM87.2966 63.8441C85.8584 62.4837 85.2178 60.9776 85.2178 59.1H77.2178C77.2178 63.2224 78.7971 66.8163 81.799 69.6559L87.2966 63.8441ZM85.2178 59.1C85.2178 57.1429 85.8686 55.7218 87.2102 54.5252L81.8853 48.5548C78.7869 51.3182 77.2178 54.9371 77.2178 59.1H85.2178ZM87.2543 54.4853C88.6228 53.2277 90.4549 52.48 93.0978 52.48V44.48C88.7807 44.48 84.9128 45.7723 81.8413 48.5947L87.2543 54.4853ZM93.0978 52.48C95.7407 52.48 97.5728 53.2277 98.9413 54.4853L104.354 48.5947C101.283 45.7723 97.4149 44.48 93.0978 44.48V52.48ZM98.9853 54.5252C100.327 55.7218 100.978 57.1429 100.978 59.1H108.978C108.978 54.9371 107.409 51.3182 104.31 48.5548L98.9853 54.5252ZM100.978 59.1C100.978 60.9776 100.337 62.4837 98.899 63.8441L104.397 69.6559C107.398 66.8163 108.978 63.2224 108.978 59.1H100.978ZM98.899 63.8441C97.5259 65.143 95.7084 65.9 93.0978 65.9V73.9C97.4472 73.9 101.33 72.557 104.397 69.6559L98.899 63.8441ZM145.249 6V2H140.81L141.27 6.41442L145.249 6ZM169.549 6L173.527 6.41442L173.987 2H169.549V6ZM165.499 44.88V48.88H169.104L169.477 45.2944L165.499 44.88ZM149.299 44.88L145.32 45.2944L145.694 48.88H149.299V44.88ZM148.849 66.75L146.1 69.6559L148.849 66.75ZM148.849 51.54L151.511 54.5252L151.533 54.5054L151.555 54.4853L148.849 51.54ZM165.949 51.54L163.242 54.4853L163.264 54.5054L163.286 54.5252L165.949 51.54ZM165.949 66.75L168.697 69.6559L165.949 66.75ZM145.249 10H169.549V2H145.249V10ZM165.57 5.58557L161.52 44.4656L169.477 45.2944L173.527 6.41442L165.57 5.58557ZM165.499 40.88H149.299V48.88H165.499V40.88ZM153.277 44.4656L149.227 5.58557L141.27 6.41442L145.32 45.2944L153.277 44.4656ZM157.399 65.9C154.788 65.9 152.97 65.143 151.597 63.8441L146.1 69.6559C149.167 72.557 153.049 73.9 157.399 73.9V65.9ZM151.597 63.8441C150.159 62.4837 149.519 60.9776 149.519 59.1H141.519C141.519 63.2224 143.098 66.8163 146.1 69.6559L151.597 63.8441ZM149.519 59.1C149.519 57.1429 150.169 55.7218 151.511 54.5252L146.186 48.5548C143.088 51.3182 141.519 54.9371 141.519 59.1H149.519ZM151.555 54.4853C152.924 53.2277 154.756 52.48 157.399 52.48V44.48C153.081 44.48 149.214 45.7723 146.142 48.5947L151.555 54.4853ZM157.399 52.48C160.041 52.48 161.874 53.2277 163.242 54.4853L168.655 48.5947C165.584 45.7723 161.716 44.48 157.399 44.48V52.48ZM163.286 54.5252C164.628 55.7218 165.279 57.1429 165.279 59.1H173.279C173.279 54.9371 171.709 51.3182 168.611 48.5548L163.286 54.5252ZM165.279 59.1C165.279 60.9776 164.638 62.4837 163.2 63.8441L168.697 69.6559C171.699 66.8163 173.279 63.2224 173.279 59.1H165.279ZM163.2 63.8441C161.827 65.143 160.009 65.9 157.399 65.9V73.9C161.748 73.9 165.63 72.557 168.697 69.6559L163.2 63.8441ZM209.549 6V2H205.111L205.571 6.41442L209.549 6ZM233.849 6L237.828 6.41442L238.288 2H233.849V6ZM229.799 44.88V48.88H233.404L233.778 45.2944L229.799 44.88ZM213.599 44.88L209.621 45.2944L209.994 48.88H213.599V44.88ZM213.149 66.75L210.401 69.6559L213.149 66.75ZM213.149 51.54L215.812 54.5252L215.834 54.5054L215.856 54.4853L213.149 51.54ZM230.249 51.54L227.543 54.4853L227.565 54.5054L227.587 54.5252L230.249 51.54ZM230.249 66.75L232.998 69.6559L230.249 66.75ZM209.549 10H233.849V2H209.549V10ZM229.871 5.58557L225.821 44.4656L233.778 45.2944L237.828 6.41442L229.871 5.58557ZM229.799 40.88H213.599V48.88H229.799V40.88ZM217.578 44.4656L213.528 5.58557L205.571 6.41442L209.621 45.2944L217.578 44.4656ZM221.699 65.9C219.089 65.9 217.271 65.143 215.898 63.8441L210.401 69.6559C213.467 72.557 217.35 73.9 221.699 73.9V65.9ZM215.898 63.8441C214.46 62.4837 213.819 60.9776 213.819 59.1H205.819C205.819 63.2224 207.399 66.8163 210.401 69.6559L215.898 63.8441ZM213.819 59.1C213.819 57.1429 214.47 55.7218 215.812 54.5252L210.487 48.5548C207.389 51.3182 205.819 54.9371 205.819 59.1H213.819ZM215.856 54.4853C217.224 53.2277 219.056 52.48 221.699 52.48V44.48C217.382 44.48 213.514 45.7723 210.443 48.5947L215.856 54.4853ZM221.699 52.48C224.342 52.48 226.174 53.2277 227.543 54.4853L232.956 48.5947C229.884 45.7723 226.016 44.48 221.699 44.48V52.48ZM227.587 54.5252C228.929 55.7218 229.579 57.1429 229.579 59.1H237.579C237.579 54.9371 236.01 51.3182 232.912 48.5548L227.587 54.5252ZM229.579 59.1C229.579 60.9776 228.939 62.4837 227.501 63.8441L232.998 69.6559C236 66.8163 237.579 63.2224 237.579 59.1H229.579ZM227.501 63.8441C226.127 65.143 224.31 65.9 221.699 65.9V73.9C226.049 73.9 229.931 72.557 232.998 69.6559L227.501 63.8441ZM290.5 44.88H286.5V48.88H290.5V44.88ZM292.39 37.86L295.702 40.1034L295.718 40.0791L295.734 40.0546L292.39 37.86ZM297.79 31.65L300.543 34.5519L300.552 34.5437L300.56 34.5355L297.79 31.65ZM301.03 28.14L297.907 25.6412L297.854 25.7068L297.805 25.7745L301.03 28.14ZM300.4 22.2L298.141 25.5012L298.202 25.5427L298.264 25.582L300.4 22.2ZM290.68 22.74L292.843 26.1047L292.885 26.0778L292.926 26.0499L290.68 22.74ZM286.72 27.15L284.931 30.7277L288.463 32.4938L290.275 28.9846L286.72 27.15ZM270.7 19.14L267.16 17.277L265.258 20.8912L268.911 22.7177L270.7 19.14ZM281.32 8.43L279.408 4.91672L279.398 4.92185L279.389 4.92703L281.32 8.43ZM316.6 9.06L314.402 12.4017V12.4017L316.6 9.06ZM322.09 28.41L318.468 26.7123L318.456 26.7379L318.445 26.7637L322.09 28.41ZM319.03 33.18L321.927 35.9386L321.959 35.905L321.99 35.8707L319.03 33.18ZM314.44 37.41L311.87 34.3452L311.838 34.3721L311.806 34.3997L314.44 37.41ZM310.3 41.46L307.212 38.9172V38.9172L310.3 41.46ZM309.04 44.88V48.88H313.04V44.88H309.04ZM291.22 66.75L288.471 69.6559L291.22 66.75ZM291.22 51.54L293.883 54.5252L293.905 54.5054L293.927 54.4853L291.22 51.54ZM308.32 51.54L305.614 54.4853L305.635 54.5054L305.658 54.5252L308.32 51.54ZM308.32 66.75L311.069 69.6559L308.32 66.75ZM294.5 44.88C294.5 42.6552 294.993 41.15 295.702 40.1034L289.078 35.6166C287.267 38.29 286.5 41.4648 286.5 44.88H294.5ZM295.734 40.0546C296.773 38.4726 298.344 36.6378 300.543 34.5519L295.037 28.7481C292.556 31.1022 290.528 33.4074 289.046 35.6654L295.734 40.0546ZM300.56 34.5355C302.111 33.0472 303.389 31.6875 304.256 30.5054L297.805 25.7745C297.351 26.3925 296.47 27.3728 295.02 28.7644L300.56 34.5355ZM304.154 30.6388C305.363 29.1269 306.11 27.3055 306.11 25.26H298.11C298.11 25.2878 298.107 25.3072 298.095 25.3405C298.08 25.3795 298.035 25.4805 297.907 25.6412L304.154 30.6388ZM306.11 25.26C306.11 22.5321 304.806 20.2518 302.536 18.818L298.264 25.582C298.316 25.6145 298.319 25.6238 298.295 25.6C298.27 25.5743 298.23 25.5261 298.191 25.4563C298.152 25.3862 298.129 25.3208 298.117 25.2729C298.106 25.2274 298.11 25.2187 298.11 25.26H306.11ZM302.659 18.8988C300.699 17.558 298.417 17.03 296.08 17.03V25.03C297.224 25.03 297.821 25.282 298.141 25.5012L302.659 18.8988ZM296.08 17.03C293.312 17.03 290.737 17.8676 288.434 19.4301L292.926 26.0499C293.984 25.3323 295.008 25.03 296.08 25.03V17.03ZM288.517 19.3753C286.218 20.8531 284.431 22.8634 283.166 25.3154L290.275 28.9846C290.929 27.7166 291.782 26.7869 292.843 26.1047L288.517 19.3753ZM288.509 23.5723L272.489 15.5623L268.911 22.7177L284.931 30.7277L288.509 23.5723ZM274.24 21.003C276.261 17.1618 279.229 14.1501 283.251 11.933L279.389 4.92703C274.051 7.86986 269.939 11.9982 267.16 17.277L274.24 21.003ZM283.232 11.9433C287.244 9.75949 292.367 8.56 298.78 8.56V0.559999C291.394 0.559999 284.876 1.9405 279.408 4.91672L283.232 11.9433ZM298.78 8.56C305.579 8.56 310.682 9.95479 314.402 12.4017L318.799 5.71833C313.398 2.16521 306.621 0.559999 298.78 0.559999V8.56ZM314.402 12.4017C317.837 14.6616 319.44 17.6356 319.44 21.75H327.44C327.44 14.9444 324.484 9.45841 318.799 5.71833L314.402 12.4017ZM319.44 21.75C319.44 23.7925 319.077 25.4144 318.468 26.7123L325.712 30.1077C326.904 27.5656 327.44 24.7475 327.44 21.75H319.44ZM318.445 26.7637C317.753 28.2958 316.951 29.5204 316.07 30.4893L321.99 35.8707C323.509 34.1996 324.748 32.2442 325.736 30.0563L318.445 26.7637ZM316.134 30.4214C315.068 31.5405 313.656 32.8468 311.87 34.3452L317.011 40.4748C318.944 38.8532 320.593 37.3395 321.927 35.9386L316.134 30.4214ZM311.806 34.3997C309.843 36.117 308.265 37.6391 307.212 38.9172L313.388 44.0028C314.015 43.2409 315.197 42.063 317.074 40.4203L311.806 34.3997ZM307.212 38.9172C305.814 40.6156 305.04 42.6445 305.04 44.88H313.04C313.04 44.5955 313.107 44.3444 313.388 44.0028L307.212 38.9172ZM309.04 40.88H290.5V48.88H309.04V40.88ZM299.77 65.9C297.16 65.9 295.342 65.143 293.969 63.8441L288.471 69.6559C291.538 72.557 295.421 73.9 299.77 73.9V65.9ZM293.969 63.8441C292.531 62.4837 291.89 60.9776 291.89 59.1H283.89C283.89 63.2224 285.469 66.8163 288.471 69.6559L293.969 63.8441ZM291.89 59.1C291.89 57.1429 292.541 55.7218 293.883 54.5252L288.558 48.5548C285.459 51.3182 283.89 54.9371 283.89 59.1H291.89ZM293.927 54.4853C295.295 53.2277 297.127 52.48 299.77 52.48V44.48C295.453 44.48 291.585 45.7723 288.514 48.5947L293.927 54.4853ZM299.77 52.48C302.413 52.48 304.245 53.2277 305.614 54.4853L311.027 48.5947C307.955 45.7722 304.087 44.48 299.77 44.48V52.48ZM305.658 54.5252C306.999 55.7218 307.65 57.1429 307.65 59.1H315.65C315.65 54.9371 314.081 51.3182 310.983 48.5548L305.658 54.5252ZM307.65 59.1C307.65 60.9776 307.009 62.4837 305.571 63.8441L311.069 69.6559C314.071 66.8163 315.65 63.2224 315.65 59.1H307.65ZM305.571 63.8441C304.198 65.143 302.381 65.9 299.77 65.9V73.9C304.12 73.9 308.002 72.557 311.069 69.6559L305.571 63.8441ZM380.641 44.88H376.641V48.88H380.641V44.88ZM382.531 37.86L385.842 40.1034L385.859 40.0791L385.875 40.0546L382.531 37.86ZM387.931 31.65L390.684 34.5519L390.692 34.5437L390.701 34.5355L387.931 31.65ZM391.171 28.14L388.047 25.6412L387.995 25.7068L387.945 25.7745L391.171 28.14ZM390.541 22.2L388.282 25.5012L388.343 25.5427L388.405 25.582L390.541 22.2ZM380.821 22.74L382.984 26.1047L383.026 26.0778L383.067 26.0499L380.821 22.74ZM376.861 27.15L375.072 30.7277L378.604 32.4938L380.415 28.9846L376.861 27.15ZM360.841 19.14L357.301 17.277L355.399 20.8912L359.052 22.7177L360.841 19.14ZM371.461 8.43L369.548 4.91672L369.539 4.92185L369.53 4.92703L371.461 8.43ZM406.741 9.06L404.542 12.4017V12.4017L406.741 9.06ZM412.231 28.41L408.609 26.7123L408.597 26.7379L408.585 26.7637L412.231 28.41ZM409.171 33.18L412.067 35.9386L412.099 35.905L412.13 35.8707L409.171 33.18ZM404.581 37.41L402.01 34.3452L401.978 34.3721L401.947 34.3997L404.581 37.41ZM400.441 41.46L397.353 38.9172V38.9172L400.441 41.46ZM399.181 44.88V48.88H403.181V44.88H399.181ZM381.361 66.75L378.612 69.6559L381.361 66.75ZM381.361 51.54L384.023 54.5252L384.045 54.5054L384.067 54.4853L381.361 51.54ZM398.461 51.54L395.754 54.4853L395.776 54.5054L395.798 54.5252L398.461 51.54ZM398.461 66.75L401.21 69.6559L398.461 66.75ZM384.641 44.88C384.641 42.6552 385.133 41.15 385.842 40.1034L379.219 35.6166C377.408 38.29 376.641 41.4648 376.641 44.88H384.641ZM385.875 40.0546C386.913 38.4726 388.485 36.6378 390.684 34.5519L385.178 28.7481C382.696 31.1022 380.668 33.4074 379.187 35.6654L385.875 40.0546ZM390.701 34.5355C392.251 33.0472 393.53 31.6875 394.396 30.5054L387.945 25.7745C387.492 26.3925 386.61 27.3728 385.161 28.7644L390.701 34.5355ZM394.294 30.6388C395.504 29.1269 396.251 27.3055 396.251 25.26H388.251C388.251 25.2878 388.248 25.3072 388.235 25.3405C388.221 25.3795 388.176 25.4805 388.047 25.6412L394.294 30.6388ZM396.251 25.26C396.251 22.5321 394.947 20.2518 392.677 18.818L388.405 25.582C388.456 25.6145 388.459 25.6238 388.436 25.6C388.411 25.5743 388.37 25.5261 388.331 25.4563C388.292 25.3862 388.269 25.3208 388.258 25.2729C388.246 25.2274 388.251 25.2187 388.251 25.26H396.251ZM392.799 18.8988C390.84 17.558 388.557 17.03 386.221 17.03V25.03C387.364 25.03 387.962 25.282 388.282 25.5012L392.799 18.8988ZM386.221 17.03C383.453 17.03 380.877 17.8676 378.575 19.4301L383.067 26.0499C384.124 25.3323 385.149 25.03 386.221 25.03V17.03ZM378.658 19.3753C376.359 20.8531 374.572 22.8634 373.306 25.3154L380.415 28.9846C381.07 27.7166 381.923 26.7869 382.984 26.1047L378.658 19.3753ZM378.65 23.5723L362.63 15.5623L359.052 22.7177L375.072 30.7277L378.65 23.5723ZM364.38 21.003C366.402 17.1618 369.37 14.1501 373.392 11.933L369.53 4.92703C364.191 7.86986 360.079 11.9982 357.301 17.277L364.38 21.003ZM373.373 11.9433C377.385 9.75949 382.507 8.56 388.921 8.56V0.559999C381.534 0.559999 375.016 1.9405 369.548 4.91672L373.373 11.9433ZM388.921 8.56C395.72 8.56 400.823 9.95479 404.542 12.4017L408.939 5.71833C403.538 2.16521 396.762 0.559999 388.921 0.559999V8.56ZM404.542 12.4017C407.977 14.6616 409.581 17.6356 409.581 21.75H417.581C417.581 14.9444 414.624 9.45841 408.939 5.71833L404.542 12.4017ZM409.581 21.75C409.581 23.7925 409.217 25.4144 408.609 26.7123L415.853 30.1077C417.044 27.5656 417.581 24.7475 417.581 21.75H409.581ZM408.585 26.7637C407.893 28.2958 407.092 29.5204 406.211 30.4893L412.13 35.8707C413.65 34.1996 414.888 32.2442 415.876 30.0563L408.585 26.7637ZM406.274 30.4214C405.208 31.5405 403.797 32.8468 402.01 34.3452L407.151 40.4748C409.085 38.8532 410.733 37.3395 412.067 35.9386L406.274 30.4214ZM401.947 34.3997C399.984 36.117 398.406 37.6391 397.353 38.9172L403.528 44.0028C404.156 43.2409 405.337 42.063 407.215 40.4203L401.947 34.3997ZM397.353 38.9172C395.954 40.6156 395.181 42.6445 395.181 44.88H403.181C403.181 44.5955 403.247 44.3444 403.528 44.0028L397.353 38.9172ZM399.181 40.88H380.641V48.88H399.181V40.88ZM389.911 65.9C387.3 65.9 385.483 65.143 384.11 63.8441L378.612 69.6559C381.679 72.557 385.561 73.9 389.911 73.9V65.9ZM384.11 63.8441C382.671 62.4837 382.031 60.9776 382.031 59.1H374.031C374.031 63.2224 375.61 66.8163 378.612 69.6559L384.11 63.8441ZM382.031 59.1C382.031 57.1429 382.682 55.7218 384.023 54.5252L378.698 48.5548C375.6 51.3182 374.031 54.9371 374.031 59.1H382.031ZM384.067 54.4853C385.436 53.2277 387.268 52.48 389.911 52.48V44.48C385.594 44.48 381.726 45.7723 378.654 48.5947L384.067 54.4853ZM389.911 52.48C392.554 52.48 394.386 53.2277 395.754 54.4853L401.167 48.5947C398.096 45.7722 394.228 44.48 389.911 44.48V52.48ZM395.798 54.5252C397.14 55.7218 397.791 57.1429 397.791 59.1H405.791C405.791 54.9371 404.222 51.3182 401.123 48.5548L395.798 54.5252ZM397.791 59.1C397.791 60.9776 397.15 62.4837 395.712 63.8441L401.21 69.6559C404.211 66.8163 405.791 63.2224 405.791 59.1H397.791ZM395.712 63.8441C394.339 65.143 392.521 65.9 389.911 65.9V73.9C394.26 73.9 398.143 72.557 401.21 69.6559L395.712 63.8441ZM454.571 6V2H450.133L450.592 6.41442L454.571 6ZM478.871 6L482.849 6.41442L483.309 2H478.871V6ZM474.821 44.88V48.88H478.426L478.799 45.2944L474.821 44.88ZM458.621 44.88L454.642 45.2944L455.016 48.88H458.621V44.88ZM458.171 66.75L455.422 69.6559L458.171 66.75ZM458.171 51.54L460.833 54.5252L460.855 54.5054L460.877 54.4853L458.171 51.54ZM475.271 51.54L472.564 54.4853L472.586 54.5054L472.608 54.5252L475.271 51.54ZM475.271 66.75L478.02 69.6559L475.271 66.75ZM454.571 10H478.871V2H454.571V10ZM474.892 5.58557L470.842 44.4656L478.799 45.2944L482.849 6.41442L474.892 5.58557ZM474.821 40.88H458.621V48.88H474.821V40.88ZM462.599 44.4656L458.549 5.58557L450.592 6.41442L454.642 45.2944L462.599 44.4656ZM466.721 65.9C464.11 65.9 462.293 65.143 460.92 63.8441L455.422 69.6559C458.489 72.557 462.371 73.9 466.721 73.9V65.9ZM460.92 63.8441C459.481 62.4837 458.841 60.9776 458.841 59.1H450.841C450.841 63.2224 452.42 66.8163 455.422 69.6559L460.92 63.8441ZM458.841 59.1C458.841 57.1429 459.492 55.7218 460.833 54.5252L455.508 48.5548C452.41 51.3182 450.841 54.9371 450.841 59.1H458.841ZM460.877 54.4853C462.246 53.2277 464.078 52.48 466.721 52.48V44.48C462.404 44.48 458.536 45.7723 455.464 48.5947L460.877 54.4853ZM466.721 52.48C469.364 52.48 471.196 53.2277 472.564 54.4853L477.977 48.5947C474.906 45.7723 471.038 44.48 466.721 44.48V52.48ZM472.608 54.5252C473.95 55.7218 474.601 57.1429 474.601 59.1H482.601C482.601 54.9371 481.032 51.3182 477.933 48.5548L472.608 54.5252ZM474.601 59.1C474.601 60.9776 473.96 62.4837 472.522 63.8441L478.02 69.6559C481.021 66.8163 482.601 63.2224 482.601 59.1H474.601ZM472.522 63.8441C471.149 65.143 469.331 65.9 466.721 65.9V73.9C471.07 73.9 474.953 72.557 478.02 69.6559L472.522 63.8441ZM535.522 44.88H531.522V48.88H535.522V44.88ZM537.412 37.86L540.723 40.1034L540.74 40.0791L540.756 40.0546L537.412 37.86ZM542.812 31.65L545.565 34.5519L545.573 34.5437L545.582 34.5355L542.812 31.65ZM546.052 28.14L542.928 25.6412L542.876 25.7068L542.826 25.7745L546.052 28.14ZM545.422 22.2L543.163 25.5012L543.224 25.5427L543.286 25.582L545.422 22.2ZM535.702 22.74L537.865 26.1047L537.906 26.0778L537.948 26.0499L535.702 22.74ZM531.742 27.15L529.953 30.7277L533.485 32.4938L535.296 28.9846L531.742 27.15ZM515.722 19.14L512.182 17.277L510.28 20.8912L513.933 22.7177L515.722 19.14ZM526.342 8.43L524.429 4.91672L524.42 4.92185L524.41 4.92703L526.342 8.43ZM561.622 9.06L559.423 12.4017V12.4017L561.622 9.06ZM567.112 28.41L563.49 26.7123L563.478 26.7379L563.466 26.7637L567.112 28.41ZM564.052 33.18L566.948 35.9386L566.98 35.905L567.011 35.8707L564.052 33.18ZM559.462 37.41L556.891 34.3452L556.859 34.3721L556.828 34.3997L559.462 37.41ZM555.322 41.46L552.234 38.9172V38.9172L555.322 41.46ZM554.062 44.88V48.88H558.062V44.88H554.062ZM536.242 66.75L533.493 69.6559L536.242 66.75ZM536.242 51.54L538.904 54.5252L538.926 54.5054L538.948 54.4853L536.242 51.54ZM553.342 51.54L550.635 54.4853L550.657 54.5054L550.679 54.5252L553.342 51.54ZM553.342 66.75L556.09 69.6559L553.342 66.75ZM539.522 44.88C539.522 42.6552 540.014 41.15 540.723 40.1034L534.1 35.6166C532.289 38.29 531.522 41.4648 531.522 44.88H539.522ZM540.756 40.0546C541.794 38.4726 543.366 36.6378 545.565 34.5519L540.059 28.7481C537.577 31.1022 535.549 33.4074 534.067 35.6654L540.756 40.0546ZM545.582 34.5355C547.132 33.0472 548.41 31.6875 549.277 30.5054L542.826 25.7745C542.373 26.3925 541.491 27.3728 540.042 28.7644L545.582 34.5355ZM549.175 30.6388C550.385 29.1269 551.132 27.3055 551.132 25.26H543.132C543.132 25.2878 543.129 25.3072 543.116 25.3405C543.102 25.3795 543.057 25.4805 542.928 25.6412L549.175 30.6388ZM551.132 25.26C551.132 22.5321 549.828 20.2518 547.558 18.818L543.286 25.582C543.337 25.6145 543.34 25.6238 543.317 25.6C543.292 25.5743 543.251 25.5261 543.212 25.4563C543.173 25.3862 543.15 25.3208 543.138 25.2729C543.127 25.2274 543.132 25.2187 543.132 25.26H551.132ZM547.68 18.8988C545.721 17.558 543.438 17.03 541.102 17.03V25.03C542.245 25.03 542.842 25.282 543.163 25.5012L547.68 18.8988ZM541.102 17.03C538.334 17.03 535.758 17.8676 533.456 19.4301L537.948 26.0499C539.005 25.3323 540.03 25.03 541.102 25.03V17.03ZM533.539 19.3753C531.24 20.8531 529.453 22.8634 528.187 25.3154L535.296 28.9846C535.951 27.7166 536.803 26.7869 537.865 26.1047L533.539 19.3753ZM533.53 23.5723L517.51 15.5623L513.933 22.7177L529.953 30.7277L533.53 23.5723ZM519.261 21.003C521.283 17.1618 524.251 14.1501 528.273 11.933L524.41 4.92703C519.072 7.86986 514.96 11.9982 512.182 17.277L519.261 21.003ZM528.254 11.9433C532.266 9.75949 537.388 8.56 543.802 8.56V0.559999C536.415 0.559999 529.897 1.9405 524.429 4.91672L528.254 11.9433ZM543.802 8.56C550.601 8.56 555.704 9.95479 559.423 12.4017L563.82 5.71833C558.419 2.16521 551.643 0.559999 543.802 0.559999V8.56ZM559.423 12.4017C562.858 14.6616 564.462 17.6356 564.462 21.75H572.462C572.462 14.9444 569.505 9.45841 563.82 5.71833L559.423 12.4017ZM564.462 21.75C564.462 23.7925 564.098 25.4144 563.49 26.7123L570.733 30.1077C571.925 27.5656 572.462 24.7475 572.462 21.75H564.462ZM563.466 26.7637C562.774 28.2958 561.973 29.5204 561.092 30.4893L567.011 35.8707C568.531 34.1996 569.769 32.2442 570.757 30.0563L563.466 26.7637ZM561.155 30.4214C560.089 31.5405 558.678 32.8468 556.891 34.3452L562.032 40.4748C563.965 38.8532 565.614 37.3395 566.948 35.9386L561.155 30.4214ZM556.828 34.3997C554.865 36.117 553.286 37.6391 552.234 38.9172L558.409 44.0028C559.037 43.2409 560.218 42.063 562.096 40.4203L556.828 34.3997ZM552.234 38.9172C550.835 40.6156 550.062 42.6445 550.062 44.88H558.062C558.062 44.5955 558.128 44.3444 558.409 44.0028L552.234 38.9172ZM554.062 40.88H535.522V48.88H554.062V40.88ZM544.792 65.9C542.181 65.9 540.363 65.143 538.99 63.8441L533.493 69.6559C536.56 72.557 540.442 73.9 544.792 73.9V65.9ZM538.99 63.8441C537.552 62.4837 536.912 60.9776 536.912 59.1H528.912C528.912 63.2224 530.491 66.8163 533.493 69.6559L538.99 63.8441ZM536.912 59.1C536.912 57.1429 537.562 55.7218 538.904 54.5252L533.579 48.5548C530.481 51.3182 528.912 54.9371 528.912 59.1H536.912ZM538.948 54.4853C540.317 53.2277 542.149 52.48 544.792 52.48V44.48C540.474 44.48 536.607 45.7723 533.535 48.5947L538.948 54.4853ZM544.792 52.48C547.435 52.48 549.267 53.2277 550.635 54.4853L556.048 48.5947C552.977 45.7722 549.109 44.48 544.792 44.48V52.48ZM550.679 54.5252C552.021 55.7218 552.672 57.1429 552.672 59.1H560.672C560.672 54.9371 559.102 51.3182 556.004 48.5548L550.679 54.5252ZM552.672 59.1C552.672 60.9776 552.031 62.4837 550.593 63.8441L556.09 69.6559C559.092 66.8163 560.672 63.2224 560.672 59.1H552.672ZM550.593 63.8441C549.22 65.143 547.402 65.9 544.792 65.9V73.9C549.141 73.9 553.023 72.557 556.09 69.6559L550.593 63.8441ZM625.662 44.88H621.662V48.88H625.662V44.88ZM627.552 37.86L630.864 40.1034L630.88 40.0791L630.896 40.0546L627.552 37.86ZM632.952 31.65L635.705 34.5519L635.714 34.5437L635.722 34.5355L632.952 31.65ZM636.192 28.14L633.069 25.6412L633.016 25.7068L632.967 25.7745L636.192 28.14ZM635.562 22.2L633.303 25.5012L633.364 25.5427L633.426 25.582L635.562 22.2ZM625.842 22.74L628.005 26.1047L628.047 26.0778L628.088 26.0499L625.842 22.74ZM621.882 27.15L620.093 30.7277L623.625 32.4938L625.437 28.9846L621.882 27.15ZM605.862 19.14L602.323 17.277L600.42 20.8912L604.073 22.7177L605.862 19.14ZM616.482 8.43L614.57 4.91672L614.56 4.92185L614.551 4.92703L616.482 8.43ZM651.762 9.06L649.564 12.4017V12.4017L651.762 9.06ZM657.252 28.41L653.63 26.7123L653.618 26.7379L653.607 26.7637L657.252 28.41ZM654.192 33.18L657.089 35.9386L657.121 35.905L657.152 35.8707L654.192 33.18ZM649.602 37.41L647.032 34.3452L647 34.3721L646.968 34.3997L649.602 37.41ZM645.462 41.46L642.375 38.9172V38.9172L645.462 41.46ZM644.202 44.88V48.88H648.202V44.88H644.202ZM626.382 66.75L623.633 69.6559L626.382 66.75ZM626.382 51.54L629.045 54.5252L629.067 54.5054L629.089 54.4853L626.382 51.54ZM643.482 51.54L640.776 54.4853L640.798 54.5054L640.82 54.5252L643.482 51.54ZM643.482 66.75L646.231 69.6559L643.482 66.75ZM629.662 44.88C629.662 42.6552 630.155 41.15 630.864 40.1034L624.241 35.6166C622.43 38.29 621.662 41.4648 621.662 44.88H629.662ZM630.896 40.0546C631.935 38.4726 633.507 36.6378 635.705 34.5519L630.199 28.7481C627.718 31.1022 625.69 33.4074 624.208 35.6654L630.896 40.0546ZM635.722 34.5355C637.273 33.0472 638.551 31.6875 639.418 30.5054L632.967 25.7745C632.513 26.3925 631.632 27.3728 630.182 28.7644L635.722 34.5355ZM639.316 30.6388C640.525 29.1269 641.272 27.3055 641.272 25.26H633.272C633.272 25.2878 633.269 25.3072 633.257 25.3405C633.242 25.3795 633.197 25.4805 633.069 25.6412L639.316 30.6388ZM641.272 25.26C641.272 22.5321 639.968 20.2518 637.698 18.818L633.426 25.582C633.478 25.6145 633.481 25.6238 633.457 25.6C633.432 25.5743 633.392 25.5261 633.353 25.4563C633.314 25.3862 633.291 25.3208 633.279 25.2729C633.268 25.2274 633.272 25.2187 633.272 25.26H641.272ZM637.821 18.8988C635.861 17.558 633.579 17.03 631.242 17.03V25.03C632.386 25.03 632.983 25.282 633.303 25.5012L637.821 18.8988ZM631.242 17.03C628.474 17.03 625.899 17.8676 623.596 19.4301L628.088 26.0499C629.146 25.3323 630.17 25.03 631.242 25.03V17.03ZM623.679 19.3753C621.38 20.8531 619.593 22.8634 618.328 25.3154L625.437 28.9846C626.091 27.7166 626.944 26.7869 628.005 26.1047L623.679 19.3753ZM623.671 23.5723L607.651 15.5623L604.073 22.7177L620.093 30.7277L623.671 23.5723ZM609.402 21.003C611.424 17.1618 614.391 14.1501 618.413 11.933L614.551 4.92703C609.213 7.86986 605.101 11.9982 602.323 17.277L609.402 21.003ZM618.395 11.9433C622.407 9.75949 627.529 8.56 633.942 8.56V0.559999C626.556 0.559999 620.038 1.9405 614.57 4.91672L618.395 11.9433ZM633.942 8.56C640.741 8.56 645.844 9.95479 649.564 12.4017L653.961 5.71833C648.56 2.16521 641.783 0.559999 633.942 0.559999V8.56ZM649.564 12.4017C652.999 14.6616 654.602 17.6356 654.602 21.75H662.602C662.602 14.9444 659.646 9.45841 653.961 5.71833L649.564 12.4017ZM654.602 21.75C654.602 23.7925 654.239 25.4144 653.63 26.7123L660.874 30.1077C662.066 27.5656 662.602 24.7475 662.602 21.75H654.602ZM653.607 26.7637C652.915 28.2958 652.113 29.5204 651.232 30.4893L657.152 35.8707C658.671 34.1996 659.91 32.2442 660.898 30.0563L653.607 26.7637ZM651.296 30.4214C650.23 31.5405 648.818 32.8468 647.032 34.3452L652.173 40.4748C654.106 38.8532 655.755 37.3395 657.089 35.9386L651.296 30.4214ZM646.968 34.3997C645.006 36.117 643.427 37.6391 642.375 38.9172L648.55 44.0028C649.177 43.2409 650.359 42.063 652.236 40.4203L646.968 34.3997ZM642.375 38.9172C640.976 40.6156 640.202 42.6445 640.202 44.88H648.202C648.202 44.5955 648.269 44.3444 648.55 44.0028L642.375 38.9172ZM644.202 40.88H625.662V48.88H644.202V40.88ZM634.932 65.9C632.322 65.9 630.504 65.143 629.131 63.8441L623.633 69.6559C626.7 72.557 630.583 73.9 634.932 73.9V65.9ZM629.131 63.8441C627.693 62.4837 627.052 60.9776 627.052 59.1H619.052C619.052 63.2224 620.632 66.8163 623.633 69.6559L629.131 63.8441ZM627.052 59.1C627.052 57.1429 627.703 55.7218 629.045 54.5252L623.72 48.5548C620.621 51.3182 619.052 54.9371 619.052 59.1H627.052ZM629.089 54.4853C630.457 53.2277 632.289 52.48 634.932 52.48V44.48C630.615 44.48 626.747 45.7723 623.676 48.5947L629.089 54.4853ZM634.932 52.48C637.575 52.48 639.407 53.2277 640.776 54.4853L646.189 48.5947C643.117 45.7722 639.249 44.48 634.932 44.48V52.48ZM640.82 54.5252C642.161 55.7218 642.812 57.1429 642.812 59.1H650.812C650.812 54.9371 649.243 51.3182 646.145 48.5548L640.82 54.5252ZM642.812 59.1C642.812 60.9776 642.172 62.4837 640.733 63.8441L646.231 69.6559C649.233 66.8163 650.812 63.2224 650.812 59.1H642.812ZM640.733 63.8441C639.36 65.143 637.543 65.9 634.932 65.9V73.9C639.282 73.9 643.164 72.557 646.231 69.6559L640.733 63.8441Z" fill="#EDF4FE"/>
</svg>
