<svg width="18" height="18" viewBox="0 0 18 18" fill="none" xmlns="http://www.w3.org/2000/svg">
<path fill-rule="evenodd" clip-rule="evenodd" d="M17.587 4.13678C17.7121 3.69766 17.587 3.375 16.9914 3.375H15.0222C14.5215 3.375 14.2907 3.65373 14.1655 3.96109C14.1655 3.96109 13.1641 6.52988 11.7455 8.19847C11.2865 8.68147 11.0779 8.83515 10.8275 8.83515C10.7024 8.83515 10.5212 8.68147 10.5212 8.2424V4.13678C10.5212 3.60984 10.3759 3.375 9.95857 3.375H6.8641C6.5512 3.375 6.36302 3.61956 6.36302 3.85134C6.36302 4.35087 7.0723 4.46607 7.14541 5.87123V8.92301C7.14541 9.5921 7.03059 9.71341 6.78024 9.71341C6.11267 9.71341 4.4888 7.13316 3.5257 4.18067C3.33695 3.60681 3.14764 3.375 2.64437 3.375H0.675164C0.112533 3.375 0 3.65373 0 3.96109C0 4.50999 0.667606 7.23246 3.10848 10.8331C4.73572 13.2921 7.02839 14.625 9.11462 14.625C10.3663 14.625 10.5212 14.3289 10.5212 13.819V11.9605C10.5212 11.3684 10.6398 11.2503 11.0362 11.2503C11.3282 11.2503 11.8289 11.4039 12.9972 12.5895C14.3324 13.9946 14.5525 14.625 15.3036 14.625H17.2728C17.8354 14.625 18.1167 14.3289 17.9544 13.7447C17.7768 13.1624 17.1394 12.3176 16.2935 11.3161C15.8345 10.7453 15.146 10.1306 14.9374 9.82313C14.6453 9.42798 14.7288 9.2523 14.9374 8.90105C14.9374 8.90105 17.3366 5.34429 17.587 4.13678Z" fill="#D21218"/>
</svg>
