<svg width="18" height="18" viewBox="0 0 18 18" fill="none" xmlns="http://www.w3.org/2000/svg">
<g clip-path="url(#clip0)">
<path fill-rule="evenodd" clip-rule="evenodd" d="M8.90072 0C5.191 0.000352627 2.62048 0.0126946 1.301 1.30119C0.0125746 2.62037 0.000230035 5.31161 0.000230035 8.90066C3.98545 8.7804 5.80788 8.68061 7.26138 7.26127C8.68064 5.80777 8.78046 3.98539 8.90072 0ZM1.30078 16.6989C0.0123446 15.3798 0 12.6885 0 9.09948C3.98523 9.21975 5.80765 9.31953 7.26115 10.7389C8.68041 12.1924 8.78024 14.0148 8.9005 17.9998C5.19078 17.9998 2.62025 17.9878 1.30078 16.6989ZM9.09944 17.9998C9.2197 14.0148 9.31952 12.1924 10.7388 10.7389C12.1923 9.31953 14.0147 9.21975 17.9999 9.09948C17.9996 12.6885 17.9872 15.3798 16.6988 16.6989C15.3793 17.9878 12.8092 17.9998 9.09944 17.9998ZM9.09944 0C9.2197 3.98539 9.31952 5.80777 10.7388 7.26127C12.1923 8.68061 14.0147 8.7804 17.9999 8.90066C17.9996 5.31161 17.9872 2.62037 16.6988 1.30119C15.3793 0.0126946 12.8092 0.000352627 9.09944 0Z" fill="#D2171C"/>
<path fill-rule="evenodd" clip-rule="evenodd" d="M10.7388 10.7389C9.31952 12.1924 9.2197 14.0148 9.09944 17.9998C12.8092 17.9998 15.3793 17.9878 16.6988 16.6989C17.9872 15.3798 17.9996 12.6885 17.9999 9.09948C14.0147 9.21975 12.1923 9.31953 10.7388 10.7389ZM0 9.09948C0 12.6885 0.0123446 15.3798 1.30078 16.6989C2.62025 17.9878 5.19078 17.9998 8.9005 17.9998C8.78024 14.0148 8.68041 12.1924 7.26115 10.7389C5.80765 9.31953 3.98523 9.21975 0 9.09948ZM8.90072 0C5.191 0.000352627 2.62048 0.0126946 1.301 1.30119C0.0125746 2.62037 0.000230035 5.31161 0.000230035 8.90066C3.98545 8.7804 5.80788 8.68061 7.26138 7.26127C8.68064 5.80777 8.78046 3.98539 8.90072 0ZM10.7388 7.26127C9.31952 5.80777 9.2197 3.98539 9.09944 0C12.8092 0.000352627 15.3793 0.0126946 16.6988 1.30119C17.9872 2.62037 17.9996 5.31161 17.9999 8.90066C14.0147 8.7804 12.1923 8.68061 10.7388 7.26127Z" fill="url(#paint0_linear)"/>
<path fill-rule="evenodd" clip-rule="evenodd" d="M18 9.10017V9.00072V8.90161C14.0147 8.78101 12.1923 8.6816 10.7388 7.26192C9.31953 5.80872 9.21971 3.98637 9.09945 0.000976562H8.99996H8.90051C8.78025 3.98637 8.68042 5.80872 7.26112 7.26192C5.80762 8.6816 3.9852 8.78101 0 8.90161V9.00072V9.10017C3.9852 9.22074 5.80762 9.32019 7.26112 10.7395C8.68042 12.1931 8.78025 14.0154 8.90051 18.0008H8.99996H9.09945C9.21971 14.0154 9.31953 12.1931 10.7388 10.7395C12.1923 9.32019 14.0147 9.22074 18 9.10017Z" fill="white"/>
</g>
<defs>
<linearGradient id="paint0_linear" x1="17.9999" y1="17.9998" x2="17.9999" y2="0" gradientUnits="userSpaceOnUse">
<stop stop-color="white" stop-opacity="0.01"/>
<stop offset="0.47509" stop-color="white" stop-opacity="0.01"/>
<stop offset="0.76042" stop-color="white" stop-opacity="0.04271"/>
<stop offset="0.99531" stop-color="white" stop-opacity="0.09855"/>
<stop offset="1" stop-color="white" stop-opacity="0.1"/>
</linearGradient>
<clipPath id="clip0">
<rect width="18" height="18" fill="white"/>
</clipPath>
</defs>
</svg>
